<svg xmlns="http://www.w3.org/2000/svg" style="display: none;"><symbol id="sketch-3" viewBox="0 0 188.495 188.495"><title>sketch-3</title><path d="M113.489,60.81c-0.342-0.066-0.661-0.073-0.972-0.055c2.738-6.27,3.319-13.708,3.954-20.375 c0.252-2.643,1.073-6.961,0.617-10.551c8.506,0.102,27.747-4.308,19.974-16.843C129.037,0.041,111.279,0.932,97.65,0.816 C87.471,0.729,67.438-2.899,59.633,5.88c-9.741,10.959,3.3,19.726,13.656,22.158c-2.351,12.058-3.038,24.84-0.371,36.884 c-0.529-0.705-1.426-1.119-2.641-0.794c-8.092,2.166-18.878,6.233-24.488,12.897c-0.689-0.461-1.766,0.237-1.224,1.065 c0.062,0.095,0.136,0.18,0.199,0.275c-2.948,4.216-3.844,9.385-0.946,15.668c7.849,17.019,36.802,21.644,52.836,22.519 c15.31,0.835,43.576-0.305,48.59-19.142C151.367,74.403,133.169,64.604,113.489,60.81z M138.759,83.168 c-4.889-4.571-10.468-8.815-16.424-12.762C129.7,72.942,136.327,76.904,138.759,83.168z M126.646,19.881 c-2.064-1.621-4.373-3.018-6.45-4.511c-3.248-2.332-6.473-4.701-9.662-7.113c4.017,0.281,7.972,0.926,11.894,1.832 C128.254,10.774,129.653,14.042,126.646,19.881z M106.02,8.041c3.562,3.067,7.245,5.972,10.955,8.858 c2.266,1.761,4.433,3.849,6.723,5.695c-1.97,0.302-3.942,0.447-5.924,0.329c0.079-0.497-0.026-1.036-0.383-1.459 c-3.158-3.744-8.859-6.105-13-8.643c-2.728-1.672-5.451-3.355-8.181-5.027C99.48,7.867,102.75,7.929,106.02,8.041z M65.642,10.106 C68.809,7.958,73.734,7.953,77.4,7.66c4.185-0.336,8.413-0.207,12.621-0.052c3.654,2.398,7.316,4.782,10.951,7.208 c4.023,2.684,8.387,6.688,12.971,8.715c-0.197,0.175-0.373,0.371-0.518,0.59c-2.947-1.145-4.791,2.093-4.008,4.56 C98.347,21.44,86.799,14.299,75.192,8.242c-1.242-0.648-2.31,1.157-1.1,1.882c12.359,7.393,23.746,17.471,36.626,23.941 c0.021,0.236,0.049,0.47,0.065,0.708c0.112,1.64,0.141,3.283,0.14,4.927c-15.91-8.919-30.862-18.535-45.455-29.453 C65.536,10.2,65.573,10.152,65.642,10.106z M63.88,11.731c14.014,12.343,29.583,24.229,46.457,32.166 c0.177,0.083,0.346,0.098,0.517,0.132c-0.084,3.162-0.219,6.449-0.657,9.678c-4.555-3.834-11.408-6.604-16.162-9.466 c-4.824-2.903-9.575-6.008-14.845-7.975c0.41-2.609,0.877-5.204,1.42-7.769c0.652-3.081-2.302-4.961-4.61-4.487 C72.805,22.839,59.493,17.285,63.88,11.731z M109.438,57.803c-0.284,1.19-0.614,2.363-1.033,3.495 c-0.09,0.24-0.111,0.465-0.093,0.678c-10.145-5.577-20.665-10.417-30.374-14.583c0.209-3.464,0.606-6.919,1.125-10.349 c3.5,3.542,7.814,6.168,11.979,8.901c3.421,2.246,6.851,4.478,10.279,6.713C103.872,54.323,106.54,56.617,109.438,57.803z M59.432,99.406c-4.68-2.649-10.11-6.944-10.663-12.73c-0.086-0.892,0.058-1.745,0.31-2.578 c3.296,3.963,6.971,7.588,10.912,10.967c4.455,3.819,10.333,9.131,16.253,11.32C70.392,104.693,64.72,102.4,59.432,99.406z M99.442,109.697c-0.676,0.006-1.352-0.037-2.027-0.049c0.859-0.488,1.233-1.716,0.399-2.572 c-4.539-4.668-11.462-7.756-16.765-11.603c-7.912-5.74-15.511-12.024-22.79-18.547c-1.001-0.896-2.393,0.484-1.475,1.476 c6.191,6.697,12.909,12.743,20.002,18.471c5.391,4.354,11.974,10.768,18.777,12.731c-5.527-0.223-11.035-1.049-16.412-2.394 c1.297,0.22,2.666-1.424,1.424-2.462c-4.476-3.741-10.44-6.043-15.292-9.415c-5.497-3.82-10.765-8.259-15.289-13.282 c2.572-4.103,8.679-7.366,14.015-9.714c0.011,0.012,0.013,0.025,0.025,0.037c8.342,8.312,17.314,15.958,26.516,23.295 c5.985,4.772,12.322,10.313,19.287,13.849C105.999,109.691,102.38,109.67,99.442,109.697z M115.439,109.111 c-0.052-0.316-0.186-0.619-0.462-0.855c-6.78-5.796-14.963-10.195-22.144-15.546c-9.093-6.777-17.721-14.141-26.436-21.388 c2.126-0.879,4.001-1.596,5.273-2.132c0.136-0.058,0.238-0.143,0.358-0.213c18.67,10.308,33.83,24.657,49.997,38.344 c0.338,0.285,0.696,0.414,1.057,0.479C120.612,108.41,118.032,108.84,115.439,109.111z M137.678,97.498 c-2.233,5.143-7.051,8.078-12.728,9.787c0.903-0.741,1.28-2.047,0.137-3.023C109.588,91.021,93.56,76.719,74.898,68.049 c1.731,0.517,4.026-0.949,3.66-3.355c-0.261-1.722-0.44-3.453-0.577-5.187c9.336,6.091,18.433,12.985,27.661,19.29 c5.781,3.95,11.529,7.947,17.255,11.975c3.823,2.689,7.896,6.771,12.42,8.16c1.432,0.439,2.864-1.3,1.993-2.592 c-5.953-8.83-20.916-15.269-29.632-21.028c-9.623-6.358-19.253-13.055-29.8-17.589c-0.145-2.625-0.152-5.258-0.059-7.89 c10.403,5.19,20.594,10.719,30.439,16.934c10.826,6.833,20.488,15.628,31.455,22.104C139.659,91.451,139.07,94.293,137.678,97.498 z"/><path d="M108.539,124.611c-8.438-2.1-16.494-1.352-25-0.019c-2.372,0.372-2.847,2.558-2.067,4.287 c-4.433,3.653-1.293,16.344-0.646,20.728c0.308,2.088,0.642,4.193,0.993,6.303c-0.004,0.023,0.004,0.024,0.008,0.048 c1.706,10.263,4.015,20.675,7.987,30.194c1.22,2.926,5.256,3.314,6.34,0c6.169-18.838,10.952-38.008,14.695-57.469 C111.185,126.947,110.39,125.072,108.539,124.611z M92.791,174.72c-1.861-6.228-3.29-12.619-4.625-18.907 c-1.297-6.111-2.418-12.271-3.05-18.488c-0.199-1.957,0.218-4.274-0.143-6.289c0.113-0.008,0.22-0.002,0.337-0.021 c6.467-1.032,12.201-1.667,18.446-0.635C100.788,145.339,97.174,160.124,92.791,174.72z"/></symbol><symbol id="trash" viewBox="0 0 190.247 190.246"><title>trash</title><path d="M163.509,31.96c0.275-3.999,1.173-9.215-1.807-12.256c-0.169-0.172-0.402-0.262-0.612-0.385 c-0.413-1.11-1.354-2.013-2.704-2.13c-15.681-1.353-31.746-1.738-47.587-2.294c-2.779-0.097-5.583-0.237-8.398-0.393 c0.443-1.752,0.473-3.798,0.716-5.332c0.239-1.506,0.896-3.146,0.896-4.671c0-2.395-1.451-4.192-3.605-4.466 c-4.245-0.541-4.405,5.565-4.409,8.617c-0.002,1.574-0.116,3.664,0.226,5.491c-21.988-1.368-44.704-3.246-65.874,2.115 c-1.208,0.306-1.771,1.394-1.834,2.533c-2.393,2.81-1.994,7.725-2.096,11.352c-0.161,5.729,0.422,11.422,1.406,17.04 c0.135,0.769,0.514,1.305,0.975,1.725c-0.061,1.166,0.472,2.38,1.636,2.591c3.885,0.703,7.811,1.146,11.754,1.481 c-8.812,42.674-2.226,87.327-1.862,130.594c0.021,2.43,1.743,4.004,3.849,4.194c31.703,2.863,64.041,4.308,95.515-1.679 c0.955-0.182,1.626-0.651,2.067-1.268c1.524,0.617,3.438-0.232,3.606-2.68c1.495-21.68,1.306-43.553,2.077-65.281 c0.722-20.375,3.53-42.125,1.003-62.395c3.312,0.176,6.627,0.331,9.938,0.547c1.676,0.11,2.819-0.711,3.438-1.896 c1.138-0.388,2.032-1.583,1.729-3.374C162.557,43.866,163.103,37.874,163.509,31.96z M139.697,110.873 c-0.884,22.313-2.401,45.152-0.171,67.435c-0.551-0.181-1.159-0.243-1.829-0.114c-29.515,5.629-59.95,4.355-89.711,1.532 c-0.427-42.196-4.747-84.267-0.509-126.369c7.199,0.376,14.452,0.326,21.693,0.177c-4.812,24.153-2.867,49.8-3.964,74.339 c-0.318,7.121-4.781,29.902,2.617,34.436c1.166,0.715,2.72,0.566,3.666-0.516c0.922-1.055,1.16-1.789,1.389-3.243 c0.187-1.187-0.277-2.242-1.003-2.882c0.21-0.053,0.229-0.811,0.155-3.527c-0.081-2.975,0.028-5.964,0.095-8.938 c0.148-6.566,0.517-13.123,0.682-19.688c0.587-23.416-0.695-46.702,0.675-70.084c5.616-0.138,11.22-0.292,16.769-0.322 c-1.708,17.654,0.441,35.936,1.581,53.551c0.669,10.322,1.004,20.647,0.891,30.994c-0.086,7.858-2.563,15.336-2.659,23.022 c-0.032,2.511,2.973,3.931,4.583,2.069c9-10.408,5.833-34.019,5.204-46.828c-1.03-20.981-3.58-41.816-4.623-62.799 c7.511,0.01,15.02,0.085,22.527,0.229c-1.049,16.95-1.146,33.99-1.891,50.961c-0.755,17.182-4.219,36.477-2.319,53.508 c0.377,3.377,4.502,4.303,5.565,0.82c4.538-14.881,3.202-33.366,3.738-48.912c0.645-18.636,1.077-37.596,0.02-56.232 c6.412,0.155,12.823,0.329,19.232,0.62C139.547,72.614,140.438,92.172,139.697,110.873z M91.672,44.347 c-18.904,0.03-38.485-1.147-57.29,1.699c-0.499-4.696-0.705-9.413-0.647-14.14c0.039-3.232,1.079-6.929,0.67-10.187 c26.449-1.597,53.148,0.913,79.588,2.106c10.39,0.469,20.774,1.022,31.169,1.374c3.674,0.124,7.585,0.697,11.138-0.258 c-0.184,2.854,0.14,5.867,0.132,8.585c-0.011,4.076,0,8.333,0.677,12.409C135.307,44.641,113.501,44.312,91.672,44.347z"/></symbol><symbol id="sketch-1" viewBox="0 0 185.888 185.888"><title>sketch-1</title><path d="M169.115,18.805C144.902-6.103,107.52,0.143,86.173,21.033c-0.76-0.226-1.789,0.423-1.426,1.312 c0.007,0.017,0.016,0.032,0.022,0.049c-12.673,13.221-19.046,31.841-12.327,52.05c-0.021,0.234,0.063,0.476,0.237,0.711 c0.227,0.652,0.4,1.298,0.653,1.954c-0.185-0.17-0.363-0.339-0.598-0.513c-0.915-0.677-2.333-0.52-3.265,0 c-12.784,7.137-23.21,22.559-33.365,32.95c-6.692,6.846-13.368,13.707-19.811,20.789c-3.711,4.078-9.02,8.867-10.361,14.392 c-0.174,0.293-0.31,0.626-0.36,1.032c-1.313,10.534-4.011,20.761-5.518,31.243c-0.354,2.461,0.98,4.867,3.728,4.895 c12.116,0.114,24.188,1.278,36.304,1.392c1.949,0.019,3.137-1.142,3.581-2.57c1.573,0.167,3.359-0.813,3.237-2.688 c-0.447-6.832,0.212-13.322,1.325-19.972c3.917,0.456,7.985-0.192,11.564,1.548c2.391,1.163,5.374-0.223,5.383-3.089 c0.017-4.877-0.084-9.694-0.743-14.488c6.234-0.26,12.418-0.028,18.68,0.453c2.77,0.213,4.071-3.039,2.974-5.184 c-0.989-1.934-1.612-3.975-2.293-5.982c10.751,0.705,22.432-1.833,23.948-14.183c0.036,0.017,0.061,0.04,0.099,0.056 C167.729,143.708,211.256,62.154,169.115,18.805z M155.994,19.079c7.66,4.634,13.062,10.676,16.645,17.428 c-8.285-7.544-17.267-14.521-25.84-21.793C149.975,15.87,153.062,17.305,155.994,19.079z M140.874,12.94 c10.688,11.33,22.781,22.523,34.98,32.011c0.082,0.064,0.171,0.081,0.255,0.131c0.728,2.516,1.305,5.074,1.62,7.677 c-15.535-15.073-33.438-27.961-50.438-41.33C131.854,11.361,136.421,11.881,140.874,12.94z M140.735,35.699 c-0.461-0.533-1.01-1.004-1.514-1.506c5.396,0.889,9.733,1.217,11.656,7.309c1.985,6.289-2.191,11.338-8.439,12.032 c-5.879,0.654-10.207-2.596-10.325-8.571c-0.073-3.656,1.6-6.414,4.005-8.574c0.874,0.642,1.742,1.296,2.653,1.854 C140.418,39.25,141.892,37.042,140.735,35.699z M123.481,11.598c5.99,5.417,12.062,10.727,18.152,16.013 c-1.168,0.254-2.324,0.718-3.44,1.466c-0.288,0.193-0.516,0.457-0.713,0.744c-0.895,0.095-1.749,0.302-2.56,0.604 c-2.722-2.099-5.594-4.059-8.182-6.11c-4.441-3.519-8.794-7.148-12.927-11.027C116.979,12.412,120.221,11.879,123.481,11.598z M111.44,14.006c-0.006,0.293,0.094,0.599,0.362,0.875c4.031,4.125,8.318,7.93,12.736,11.634c2.288,1.919,4.539,4.04,6.851,6.074 c-0.923,0.782-1.789,1.646-2.522,2.653c-4.166-3.328-8.789-6.249-12.901-9.566c-3.707-2.992-7.354-6.092-11.146-8.99 C106.971,15.632,109.186,14.748,111.44,14.006z M88.32,29.562c6.908,12.193,17.49,22.179,27.849,31.5 c-10.78-8.431-21.791-16.573-32.419-25.206C85.054,33.662,86.615,31.578,88.32,29.562z M36.339,122.41 c3.138,3.027,6.403,5.909,9.807,8.643c3.243,2.603,6.742,5.798,10.583,7.655c-0.054,0.407-0.082,0.828,0.015,1.296 c0.507,2.465,0.794,4.931,0.977,7.404c-3.566-3.317-8.245-5.803-12.144-8.638c-4.855-3.532-9.325-7.438-13.364-11.839 C33.565,125.458,34.946,123.942,36.339,122.41z M8.142,174.271c0.556-4.144,1.143-8.331,1.56-12.524 c2.846,2.991,5.745,5.932,8.755,8.759c1.35,1.267,2.939,2.927,4.66,4.386C18.127,174.649,13.137,174.396,8.142,174.271z M40.089,175.46c-3.388-0.023-6.772-0.137-10.156-0.272c-2.453-2.782-6.216-4.772-9.022-7.136 c-3.774-3.179-7.32-6.616-10.934-9.976c0.162-2.257,0.242-4.512,0.25-6.761c5.437,4.912,10.735,9.96,16.401,14.614 c4.07,3.344,9.07,7.728,14.303,9.292c0.012,0.11,0.007,0.22,0.02,0.33C40.682,175.494,40.395,175.462,40.089,175.46z M40.664,170.718c-4.509-2.724-9.08-5.09-13.361-8.477c-5.425-4.29-10.552-8.955-15.865-13.38 c-0.147-0.123-0.304-0.199-0.461-0.252c1.03-0.693,2.856-2.372,5.239-4.743c3.61,3.562,7.338,6.997,11.347,10.117 c3.469,2.699,7.983,6.467,12.526,6.79c0.503,0.036,0.861-0.143,1.11-0.417C40.83,163.812,40.589,167.26,40.664,170.718z M41.403,158.529c-0.118-0.263-0.283-0.506-0.522-0.681c-3.872-2.83-8.6-4.609-12.578-7.485c-3.565-2.577-6.92-5.456-10.16-8.44 c1.283-1.311,2.695-2.783,4.191-4.361c2.733,3.029,5.763,5.765,9.029,8.282c3.16,2.435,6.823,5.749,10.633,8.172 C41.787,155.523,41.583,157.029,41.403,158.529z M47.208,150.847c-0.476-0.215-1.031-0.333-1.598-0.356 c-2.977-2.203-6.54-3.948-9.413-5.869c-4.186-2.798-8.179-5.816-11.692-9.364c1.834-1.956,3.783-4.058,5.802-6.251 c2.961,3.839,6.451,7.212,10.133,10.396c4.762,4.12,10.434,9.445,16.183,12.005c0.452,0.202,0.905,0.225,1.312,0.131 c0.006,0.214,0.02,0.427,0.024,0.64C54.3,151.931,50.569,152.366,47.208,150.847z M63.672,137.753 c-0.632-2.129-2.658-2.647-4.373-2.064c-2.949-2.478-6.556-4.369-9.681-6.585c-3.905-2.768-7.631-5.789-11.23-8.947 c1.861-2.052,3.74-4.131,5.612-6.207c5.387,4.909,10.876,9.696,16.616,14.195c3.57,2.8,7.443,6.022,11.604,8.386 C69.354,136.839,66.5,137.208,63.672,137.753z M62.905,125.177c-5.825-4.227-11.278-8.947-16.79-13.575 c1.824-2.026,3.633-4.039,5.401-6.009c3.871,2.423,7.7,4.909,11.441,7.544c4.621,3.253,8.812,7.256,13.317,10.706 c-1.85,0.872-3.152,2.918-1.662,4.919c1.275,1.713,2.101,3.695,2.863,5.718C72.814,131.165,67.544,128.542,62.905,125.177z M82.722,124.114c-7.337-8.577-18.934-15.015-29.399-20.533c2.51-2.8,4.912-5.478,7.153-7.975 c3.013,4.492,10.772,9.967,12.715,11.714c4.703,4.229,9.519,8.338,14.452,12.295c1.558,1.249,3.354,2.97,5.286,4.307 C89.729,124.79,86.124,124.609,82.722,124.114z M97.492,121.516c-1.607-1.304-3.519-2.329-5.163-3.508 c-4.43-3.175-8.673-6.613-12.887-10.066c-2.274-1.863-12.211-12.148-16.805-14.744c2.131-2.371,4.034-4.48,5.705-6.318 c10.287,10.123,21.208,20.441,32.866,28.88C100.133,117.947,99.139,119.961,97.492,121.516z M105.706,113.183 c-0.479-0.16-0.982-0.19-1.479-0.154c-11.103-9.566-22.642-18.919-34.111-28.092c2.8-3.057,4.549-4.888,4.657-4.79 c0.31,0.275,0.881-0.098,0.611-0.464c0.669,0.254,1.399,0.247,2.049,0.043c8.547,8.074,16.994,16.256,25.631,24.234 c1.884,1.738,3.933,3.674,6.106,5.596C107.415,110.036,106.062,111.558,105.706,113.183z M124.361,113.369 c-6.953-4.768-14.356-8.979-20.956-14.445c-8.289-6.866-15.925-14.505-24.154-21.436c0.024-0.33,0.008-0.68-0.092-1.068 c-1.272-4.948-1.942-9.823-2.046-14.568c17.322,18.427,36.742,37.862,57.679,51.768 C131.429,113.959,127.955,113.928,124.361,113.369z M141.619,112.357C120.811,93.14,98.337,75.493,77.23,56.464 c0.246-3.188,0.816-6.286,1.646-9.297c18.669,24.348,44.006,43.368,66.68,63.838C144.268,111.515,142.961,111.98,141.619,112.357z M150.408,108.716c-22.071-23.071-49.697-39.918-70.715-64.12c0.622-1.837,1.389-3.621,2.24-5.371 c12.053,10.803,25.089,20.532,37.59,30.796c13.271,10.895,24.084,23.262,36.09,35.341 C153.949,106.596,152.214,107.723,150.408,108.716z M158.64,102.913c-2.652-5.225-6.297-9.96-10.418-14.36 c4.826,3.68,9.741,7.11,14.738,10.103C161.595,100.165,160.155,101.59,158.64,102.913z M165.994,94.981 c-22.952-24.901-57.046-38.393-75.777-67.576c2.185-2.29,4.626-4.457,7.407-6.445c1.515-1.083,3.09-2.04,4.691-2.938 c3.833,3.266,7.685,6.513,11.484,9.82c4.077,3.549,8.369,7.778,13.082,10.818c-0.711,1.617-1.218,3.333-1.473,5.057 c-9.045-8.044-19.71-16.604-31.293-18.509c-0.96-0.159-1.673,1.139-0.702,1.665c11.965,6.489,22.318,14.166,32.244,22.999 c1.371,5.164,5.599,8.701,10.712,10.132c10.356,10.457,19.997,22.358,31.728,31.115c0.143,0.106,0.28,0.14,0.42,0.204 C167.713,92.571,166.887,93.806,165.994,94.981z M170.633,87.734c-7.938-9.581-17.218-18.559-26.617-27.189 c3.162-0.389,5.849-1.548,8.064-3.186c0.046,0.128,0.12,0.257,0.227,0.382c4.17,4.808,9.104,8.866,14.06,12.834 c2.792,2.237,5.644,4.867,8.713,6.969C173.905,81.071,172.416,84.494,170.633,87.734z M168.303,68.065 c-5.055-3.685-9.746-7.772-14.539-11.78c-0.073-0.06-0.147-0.086-0.222-0.126c1.509-1.434,2.687-3.162,3.53-5.083 c5.256,5.754,11.076,12.238,17.955,15.491c1.642,0.776,3.717-1.408,2.085-2.702c-6.55-5.193-12.86-10.314-19.011-15.954 c0.385-1.787,0.507-3.688,0.312-5.666c6.655,5.837,13.273,11.721,19.727,17.813c-0.082,4.477-0.732,8.964-1.854,13.34 C173.647,71.547,170.802,69.886,168.303,68.065z"/></symbol><symbol id="checkmark" viewBox="0 0 193.386 193.385"><title>checkmark</title><path d="M189.821,42.842c-0.899-2.952-3.851-5.523-6.096-7.534c-5.42-4.858-11.496-9.265-15.787-15.227 c-1.386-1.924-3.513-2.193-5.168-1.479c-14.202-5.732-36.111,20.801-44.088,28.695c-18.06,17.871-34.113,38.197-52.745,55.469 c-0.837-0.934-1.8-1.795-2.541-2.584c-2.032-2.168-4.056-4.346-6.169-6.437c-3.595-3.557-7.727-8.3-12.672-9.924 c-1.228-0.403-2.23-0.059-2.903,0.641c-0.095-0.413-0.222-0.826-0.424-1.228c-0.592-1.179-1.429-1.608-2.632-2.024 c-1.433-0.495-3.264,0.057-4.286,1.133c-9.328,9.805-22.262,16.093-30.147,27.288c-0.279,0.396-0.44,0.791-0.529,1.176 c-0.537-0.281-0.99-0.422-1.247-0.249c-0.252,0.17-0.505,0.34-0.757,0.51c-1.201,0.811-1.942,2.224-1.501,3.688 c3.857,12.797,16.994,24.149,25.965,33.373c8.936,9.188,19.996,22.67,32.466,27.177c1.71,0.618,3.1,0.159,4.034-0.804 c1.269,0.514,2.809,0.441,4.161-0.666c44.947-36.822,88.35-78.613,125.521-123.293C194.786,47.528,192.636,43.583,189.821,42.842z M62.076,167.488c-0.347-0.252-0.727-0.479-1.184-0.644c-5.4-1.943-10.28-7.426-14.439-11.166 c-6.794-6.11-13.231-12.624-19.524-19.246c-1.632-1.716-12.074-15.077-18.893-21.925c0.532-0.119,1.051-0.321,1.505-0.726 c0.383-0.34,0.785-0.658,1.174-0.992c7.106,9.418,15.847,17.615,24.434,25.637c9.203,8.596,19.285,19.485,30.201,25.88 C64.263,165.373,63.16,166.418,62.076,167.488z M68.605,161.142c-6.901-9.37-18.049-16.621-26.729-24.301 c-9.697-8.582-19.09-17.363-28.125-26.602c2.41-1.939,4.893-3.808,7.387-5.663c9.483,10.577,18.289,21.803,27.413,32.686 c3.987,4.757,15.086,22.021,23.018,19.879c1.555-0.42,1.648-2.396,0.422-3.228c-8.796-5.968-16.214-15.822-23.399-23.546 c-8.447-9.076-16.328-18.808-25.28-27.404c1.383-1.027,2.764-2.059,4.134-3.099c7.657,9.224,16.444,17.709,24.821,26.246 c7.35,7.491,14.548,17.06,23.289,22.905c2.017,1.349,4.692-1.327,3.343-3.344c-5.846-8.741-15.414-15.939-22.905-23.289 c-7.562-7.42-15.096-15.147-23.122-22.148c0.167-0.12,0.234-0.384,0.003-0.526c-0.534-0.332-1.406-0.849-2.257-1.401 c-0.187-0.158-0.372-0.322-0.559-0.479c2.6-2.036,5.092-4.185,7.496-6.423c5.857,10.643,13.986,20.206,21.896,29.295 c7.114,8.175,15.709,18.827,25.405,24.831C79.417,150.703,73.992,155.896,68.605,161.142z M89.077,141.531 c-7.418-7.637-16.367-14.213-23.875-21.791c-9.353-9.438-17.834-19.622-25.18-30.676c0.166-0.169,0.352-0.318,0.517-0.49 s0.255-0.371,0.388-0.556c0.128,0.375,0.304,0.736,0.572,1.054c3.268,3.874,6.903,7.466,10.308,11.224 c1.817,2.006,3.683,3.97,5.516,5.962c1.503,1.632,3.006,3.863,5.222,4.496c1.603,0.457,3.078-0.1,4.053-1.149 c0.077-0.04,0.154-0.041,0.231-0.09c0.013-0.008,0.023-0.019,0.036-0.025c3.783,4.1,7.854,7.945,11.828,11.85 c5.116,5.026,9.971,10.79,15.548,15.316C92.518,138.28,90.796,139.902,89.077,141.531z M97.898,133.194 c-4.125-4.978-9.61-9.111-14.438-13.374c-4.612-4.074-9.135-8.266-13.76-12.331c2.907-2.032,5.689-4.261,8.423-6.564 c5.265,4.9,10.33,10.009,15.462,15.047c3,2.945,7.137,8.331,11.458,10.477C102.661,128.698,100.28,130.946,97.898,133.194z M108.533,123.155c-1.049-1.126-2.33-1.87-3.734-2.957c-2.89-2.233-5.572-4.711-8.24-7.199c-5.196-4.849-10.245-9.838-15.658-14.44 c2.479-2.201,4.883-4.521,7.259-6.882c3.355,5.615,8.517,10.27,13.253,14.734c2.477,2.335,8.641,9.639,13.294,10.895 C112.649,119.255,110.595,121.208,108.533,123.155z M118.004,114.18c-0.794-1.637-2.82-2.581-4.254-3.596 c-3.196-2.265-6.22-4.776-9.22-7.291c-5.048-4.234-10.041-8.652-14.908-13.075c1.625-1.647,3.229-3.329,4.821-5.028 c6.344,4.164,11.785,9.405,17.079,14.824c3.226,3.302,6.636,7.307,10.54,10.264C120.705,111.575,119.363,112.887,118.004,114.18z M125.906,106.584c-4.249-3.685-8.963-7.04-13.083-10.823c-5.139-4.717-10.281-9.277-16.209-12.917 c2.395-2.6,4.761-5.243,7.12-7.898c0.078,0.194,0.194,0.381,0.391,0.544c5.123,4.243,10.33,8.365,15.36,12.722 c4.37,3.785,8.579,8.423,13.559,11.436C130.664,101.959,128.3,104.287,125.906,106.584z M136.044,96.734 c-3.747-4.503-8.893-8.01-13.47-11.61c-5.361-4.216-10.783-8.449-16.567-12.071c-0.146-0.092-0.298-0.131-0.446-0.164 c1.82-2.055,3.639-4.112,5.464-6.16c-0.244,0.512-0.235,1.129,0.273,1.591c5.411,4.901,10.883,9.649,16.07,14.799 c3.603,3.575,7.125,7.828,11.121,11.199C137.672,95.119,136.865,95.934,136.044,96.734z M141.902,90.942 c-4.119-4.284-9.12-8.135-13.35-12.096c-4.874-4.564-9.853-9.203-15.483-12.825c-0.492-0.317-1.005-0.252-1.417,0 c2.293-2.571,4.608-5.106,6.94-7.616c3.196,5.953,8.249,11.098,13.056,15.573c3.688,3.433,10.551,10.514,16.377,10.838 C145.986,86.86,143.955,88.913,141.902,90.942z M150.811,82.03c-0.068-0.14-0.106-0.296-0.2-0.417 c-1.515-1.955-4.049-2.789-6.133-4.014c-3.385-1.99-6.5-4.431-9.507-6.942c-5.217-4.357-10.016-9.391-13.618-15.181 c1.223-1.282,2.461-2.539,3.703-3.789c5.145,5.44,10.474,10.703,15.761,16.004c3.843,3.854,7.644,8.764,12.066,12.221 C152.19,80.615,151.507,81.328,150.811,82.03z M156.165,76.557c-3.565-4.316-8.746-7.861-12.808-11.407 c-5.65-4.931-11.228-9.932-16.734-15.022c1.988-1.959,4.02-3.85,6.078-5.698c7.095,5.849,13.165,12.927,19.54,19.522 c2.262,2.34,5.112,5.855,8.373,7.934C159.124,73.435,157.665,75.019,156.165,76.557z M164.16,68.162 c-4.505-2.782-8.617-7.557-12.131-10.931c-5.405-5.191-10.667-10.706-16.847-14.993c2.565-2.202,5.229-4.253,7.944-6.222 c4.599,5.464,9.43,10.773,14.362,15.92c3.062,3.196,7.256,8.659,11.754,10.787C167.55,64.535,165.867,66.363,164.16,68.162z M160.617,48.806c-5.101-4.751-9.989-9.769-15.226-14.377c1.798-1.234,3.645-2.393,5.517-3.512c0.171,0.27,3.927,4.513,4.158,4.737 c2.906,2.817,5.683,5.771,8.475,8.699c2.918,3.059,5.877,6.082,8.866,9.07c0.854,0.853,1.768,1.918,2.778,2.824 c-0.847,0.93-1.67,1.888-2.522,2.813C169.554,55.189,164.146,52.09,160.617,48.806z M179.053,51.936 c-1.521-1.437-3.437-2.705-4.659-3.808c-3.853-3.474-7.628-7.029-11.485-10.497c-1.454-1.308-6.323-6.767-9.942-7.93 c2.816-1.585,5.725-3.027,8.761-4.27c2.906,4.687,7.144,8.543,11.245,12.146c2.296,2.017,4.626,3.994,6.834,6.11 c0.706,0.676,1.437,1.388,2.002,2.187c0.523,0.741,1.473,2.56,1.173,0.989c0.035,0.184,0.121,0.325,0.183,0.489 C181.817,48.907,180.419,50.404,179.053,51.936z"/></symbol><symbol id="portrait" viewBox="0 0 190.949 190.949"><title>portrait</title><path d="M169.355,180.372c2.188-44.312,0.076-88.624,3.971-132.931c0.209-2.386-1.044-3.846-2.718-4.412 c-4.53-6.597-13.454-11.866-19.535-16.354c-7.47-5.512-15.008-11.103-22.788-16.22c1.071-2.024,0.698-4.776-2.11-5.272 c-16.436-2.908-34.806-0.645-51.606-1.679C63.187,2.804,41.186-2.838,29.02,1.836c-1.696-0.504-3.53,0.327-4.693,1.839 c-0.216,0.246-0.316,0.559-0.435,0.862c-0.054,0.063-0.111,0.131-0.2,0.241c-0.689,0.795-1.343,1.621-1.981,2.458 c-1.101,1.442-2.094,2.929-2.862,4.576c-0.748,1.603-0.187,3.07,0.833,3.973c-2.73,8.767-1.036,19.918-1.162,28.607 c-0.262,18.071-0.156,36.162-0.157,54.234c0,16.038,0.008,32.075,0.011,48.112c0.002,11.479-2.699,26.126,1.986,36.79 c0.354,0.806,1.107,1.309,1.959,1.51c0.038,2.934,2.286,5.719,5.765,4.374c19.421-7.509,47.693-2.268,67.912-1.382 c22.522,0.988,46.577,4.548,69.137,2.04c0.324,0.019,0.637-0.027,0.956-0.087c0.267-0.032,0.54-0.04,0.806-0.074 C172.168,189.246,173.02,182.1,169.355,180.372z M95.997,178.168c-20.544-0.927-48.395-5.763-68.624,1.33 c2.236-8.749,0.629-19.035,0.631-27.839c0.005-17.677,0.008-35.354,0.012-53.032c0.003-16.362-0.078-32.725-0.124-49.086 c-0.031-10.726,2.551-26.14-2.121-36.386c0.451-0.574,0.931-1.126,1.44-1.674c0.512-0.549,1.05-1.072,1.59-1.593 c0.088-0.076,0.134-0.119,0.192-0.171c11.09,4.783,29.328,2.533,40.146,3.272c15.627,1.068,35.991,4.795,52.005,0.946 c6.989,6.453,14.707,12.165,22.056,18.187c6.273,5.141,12.983,12.867,20.177,17.285c-4.4,43.257-4.522,87.683-2.068,131.129 C139.874,182.289,117.236,179.127,95.997,178.168z"/><path d="M148.384,67.529c0.114-1.125-0.402-1.917-1.146-2.421c-0.139-0.213-0.281-0.427-0.465-0.636 c-3.433-3.92-7.905-7.025-11.828-10.434c-2.061-1.791-4.05-3.664-5.999-5.575c-1.478-1.449-2.476-3.093-4.173-3.974 c0.065-0.868-0.863-1.767-1.742-1.159c-0.312,0.216-0.576,0.469-0.844,0.718c-0.207-0.115-0.379-0.265-0.618-0.345 c-23.11-7.734-51.167-6.922-75.203-5.471c-2.513,0.152-4.541,1.967-4.574,4.575c-0.425,32.953-7.776,67.149,0.243,99.662 c0.328,1.327,1.485,1.941,2.67,1.995c0.225,0.672,0.691,1.278,1.514,1.678c4.865,2.358,21.087,5.275,24.31-1.346 c0.631,0.167,1.312,0.261,2.106,0.176c0.848-0.092,1.346-0.48,1.664-1.268c0.854-2.11,0.003-3.846-0.611-5.891 c-0.939-3.131-0.011-6.531,1.319-9.381c1.249-2.675,3.321-4.945,5.688-6.673c2.466-1.803,5.375-1.96,6.863-4.829 c0.744-1.435,0.384-3.213-1.064-4.06c-2.327-1.357-4.855-1.078-7.301,0.093c-8.031-5.611-11.722-13.688-7.205-23.833 c4.525-10.162,14.785-16.155,25.663-16.078c10.807,0.077,19.574,8.256,20.902,18.804c0.32,2.541,0.196,4.772-0.25,6.792 c-0.019-0.014-0.037-0.028-0.055-0.041c-1.434-1.096-3.305,1.343-1.927,2.496c0.308,0.257,0.621,0.507,0.93,0.764 c-2.804,6.345-9.095,10.462-14.553,15.814c-1.625,1.593-1.151,3.631,0.206,4.787c-0.337,1.285,0.395,2.865,2.18,3.054 c5.395,0.567,10.563,2.643,13.619,7.315c2.789,4.267,0.695,8.402,1.987,12.762c0.491,1.654,2.215,2.511,3.737,2.116 c0.365,0.286,0.784,0.526,1.299,0.664C160.92,157.737,146.83,82.944,148.384,67.529z M120.539,51.318 c0.339,0.015,0.608-0.073,0.902-0.127c2,3.307,4.789,6.075,7.588,8.763c3.775,3.627,7.629,7.255,11.63,10.632 c0.224,0.188,0.45,0.337,0.68,0.477c-0.05,0.292-0.062,0.592-0.108,0.885c-4.751-3.312-10.096-5.894-15.019-8.924 c-6.227-3.83-12.177-8.048-17.976-12.479C112.319,50.854,116.414,51.132,120.539,51.318z M126.69,95.588 c1.427,0.787,2.854,1.578,4.25,2.423c3.186,1.925,6.337,5.445,9.938,6.51c0.006,0.213,0.02,0.438,0.024,0.65 c0.088,3.301,0.197,6.634,0.157,9.888c-3.166-2.543-6.884-4.612-10.129-6.944c-1.969-1.414-3.881-2.905-5.818-4.363 C125.957,101.053,126.509,98.288,126.69,95.588z M123.069,79.573c5.696,4.622,11.294,9.416,17.354,13.231 c0.074,2.065,0.149,4.077,0.236,6.123c-1.979-1.424-4.391-2.483-6.334-3.565c-2.489-1.386-5.035-2.623-7.621-3.774 c-0.035-0.53-0.069-1.06-0.136-1.576C126.077,86.117,124.85,82.632,123.069,79.573z M48.312,85.369 c1.633,0.744,3.283,1.454,4.944,2.152c2.67,1.121,5.63,3.075,8.564,3.29c1.511,0.111,2.079-1.836,1.166-2.813 c-1.844-1.974-5.336-2.519-7.787-3.39c-2.222-0.79-4.438-1.604-6.644-2.442c0.311-3.903,0.62-7.81,0.918-11.717 c1.73,1.406,3.402,2.884,5.184,4.231c3.734,2.82,8.127,6.266,12.778,7.268c0.032,0.006,0.057-0.002,0.089,0.004 c-4.985,8.146-6.719,17.694-3.237,25.169c-0.528-0.314-1.027-0.619-1.459-0.903c-5.441-3.591-10.424-7.41-15.192-11.844 C47.841,91.373,48.077,88.371,48.312,85.369z M60.235,140.772c-3.712,0.836-7.814,0.167-11.43-0.761 c-0.44-0.113-0.864-0.127-1.262-0.07c-0.419-4.028-0.679-8.049-0.831-12.064c1.863,1.341,3.737,2.666,5.635,3.958 c3.774,2.569,7.537,6.011,12.111,6.875c0.688,0.13,1.293-0.135,1.687-0.569c0.039,0.274,0.062,0.559,0.113,0.824 C64.583,139.481,62.076,140.358,60.235,140.772z M70.648,117.039c1.02,0.143,1.821-0.378,2.019-1.249 c0.496,0.274,0.982,0.556,1.518,0.805c-2.992,2.886-5.442,6.51-6.602,9.022c-0.93,2.014-1.744,6.166-1.64,10.116 c-0.062-0.045-0.099-0.102-0.171-0.144c-6.4-3.661-12.856-7.141-19.106-11.045c-0.073-3.283-0.071-6.562-0.013-9.842 c0.393,0.267,0.793,0.53,1.154,0.792c2.575,1.861,5.13,3.752,7.684,5.644c1.868,1.383,9.418,8.608,11.264,4.026 c1.351-3.357-7.979-7.976-9.941-9.295c-2.542-1.71-5.088-3.414-7.651-5.091c-0.622-0.407-1.467-0.937-2.34-1.325 c0.119-3.439,0.349-6.877,0.556-10.313c2.832,3.126,6.368,5.674,9.708,8.171c2.535,1.896,5.091,3.755,7.572,5.724 C66.535,114.525,68.192,116.698,70.648,117.039z M69.729,78.713c-0.16-0.244-0.366-0.473-0.652-0.663 c-3.438-2.294-7.384-3.862-10.892-6.121c-2.877-1.853-5.633-3.889-8.38-5.935c0.195-2.72,0.368-5.442,0.527-8.165 c3.424,3.304,7.159,6.304,10.985,9.092c3.171,2.31,8.039,6.207,12.618,7.154C72.419,75.523,70.986,77.057,69.729,78.713z M78.258,70.474c-3.561-3.024-8.894-4.412-12.9-6.875c-5.379-3.308-10.246-7.295-14.741-11.694 c0.07-1.554,0.158-3.107,0.206-4.663c2.308-0.074,4.601-0.072,6.893-0.066c1.739,4.022,7.409,6.919,10.731,9.113 c3.48,2.296,7.041,4.471,10.537,6.744c1.829,1.189,3.663,2.772,5.624,3.948C82.377,67.906,80.247,69.082,78.258,70.474z M97.653,64.82c-2.507-0.196-4.956-0.021-7.325,0.435c-0.05-0.159-0.093-0.32-0.181-0.475c-2.72-4.782-10.576-7.729-15.168-10.407 c-3.858-2.251-7.588-4.712-11.352-7.1c5.11,0.144,10.19,0.449,15.261,0.821c-0.418,0.734-0.347,1.764,0.574,2.433 c7.47,5.421,15.415,10.195,23.296,15.048C101.092,65.212,99.386,64.956,97.653,64.82z M83.183,48.446 c6.59,0.532,13.174,1.144,19.789,1.691c5.215,4.711,10.661,9.126,16.306,13.32c6.543,4.862,13.677,10.492,21.347,13.495 c-0.196,2.338-0.312,4.693-0.34,7.059c-5.988-6.057-14.438-10.79-20.97-14.913C107.645,61.734,95.49,54.733,83.183,48.446z M123.822,107.268c1.585,1.299,3.148,2.626,4.75,3.904c3.841,3.064,7.787,6.662,12.278,8.722 c-0.303,3.853-1.027,7.459-2.43,10.642c-3.133-2.339-6.642-4.257-9.852-6.45c-3.606-2.465-6.979-5.2-10.155-8.163 C120.635,113.402,122.46,110.44,123.822,107.268z M128.151,140.354c-0.037-4.236-2.043-8.903-4.224-11.726 c-3.102-4.015-7.446-6.36-12.188-7.332c1.541-0.812,2.964-1.835,4.286-2.991c5.678,6.351,12.597,12.604,19.827,16.534 C133.994,137.126,131.512,139.02,128.151,140.354z"/></symbol><symbol id="sketch" viewBox="0 0 191.84 191.84"><title>sketch</title><path d="M188.422,150.809c2.519-1.061,4.254-4.351,2.438-6.783c-6.252-8.37-16.214-14.836-23.733-22.221 c-8.531-8.376-16.742-17.13-25.534-25.235c-0.003-0.007-0.01-0.012-0.014-0.02c1.065,0.173,2.176-0.117,3.073-1.274 c6.913-8.91,13.281-18.175,20.578-26.797c6.749-7.975,15.473-14.477,21.546-22.903c1.858-2.581,0.599-5.259-1.59-6.669 c1.16-2.037,1.211-4.683-0.907-6.94c-4.124-4.391-8.637-8.41-12.825-12.742c-4.714-4.876-8.628-10.277-12.874-15.533 c-2.285-2.828-5.434-1.521-6.887,0.936c-9.809-2.867-22.361,12.94-27.776,18.888c-7.023,7.714-15.709,17.255-20.812,27.32 c-0.283-0.16-0.554-0.339-0.839-0.497c-2.111-1.169-3.912,1.939-1.882,3.221c0.392,0.247,0.759,0.524,1.147,0.775 c-0.149,0.358-0.338,0.713-0.477,1.072c-1.774-1.557-3.758-2.97-5.473-4.459c-6.317-5.485-12.565-11.05-18.855-16.566 c-6.179-5.419-12.401-10.79-18.59-16.196c-2.398-2.094-8.777-5.783-10.634-8.9c-0.001-2.542-1.678-5.018-4.651-4.864 c-8.284,0.43-16.705,9.208-22.571,14.625C14.505,24.38,9.265,30.434,5.462,37.328C4.549,37.093,3.683,37,2.899,37.123 c-1.271-0.01-2.465,0.679-2.8,2.377c-1.344,6.834,11.377,15.336,15.754,19.125c15.204,13.165,32.33,23.448,45.118,39.248 c-0.326,0.138-0.651,0.297-0.972,0.51c-8.088,5.367-15.256,12.696-22.432,19.178c-8.338,7.529-17.04,15.317-24.034,24.147 c-0.461,0.582-0.767,1.191-0.98,1.807c-1.876,0.75-2.919,3.257-1.18,5.133c10.641,11.482,23.565,20.738,33.886,32.478 c1.188,1.351,2.47,2.353,3.764,3.143c-0.271,4.08,5.42,7.607,8.654,3.951c14.403-16.279,29.81-30.922,46.229-45.107 c0.057,0.083,0.071,0.183,0.134,0.264c8.363,10.751,21.446,18.958,32.173,27.148c5.591,4.269,18.775,18.55,26.948,15.9 c1.79-0.581,3.059-2.108,3.071-4.034c0-0.048-0.016-0.094-0.016-0.141c1.136,0.466,2.46,0.444,3.748-0.398 c4.623-3.028,8.194-7.938,11.926-11.953c3.337-3.589,10.571-9.046,9.906-14.496C191.51,153.053,190.364,151.521,188.422,150.809z M153.44,13.536c5.567,10.002,14.295,19.33,22.36,26.911c0.106,0.1,0.218,0.162,0.326,0.252c-1.84,1.311-3.551,2.845-5.211,4.455 c-3.887-4.208-8.496-7.851-12.785-11.588c-4.806-4.189-9.58-8.409-14.299-12.694c0.275-0.242,0.533-0.505,0.81-0.745 C147.482,17.676,151.057,16.207,153.44,13.536z M140.029,24.364c3.967,3.947,8.004,7.821,12.099,11.642 c4.807,4.484,9.391,9.475,14.431,13.752c-1.302,1.502-2.576,3.03-3.803,4.576c-4.481-3.732-9.987-6.73-14.398-10.34 c-5.106-4.179-9.787-8.848-14.163-13.782C136.093,28.215,138.041,26.269,140.029,24.364z M130.642,33.955 c0.17-0.191,0.356-0.367,0.528-0.556c4.727,5.617,9.848,10.833,15.4,15.662c3.705,3.223,7.983,7.281,12.604,9.829 c-0.51,0.66-1.04,1.346-1.542,1.988c-1.536,1.966-3.002,4.013-4.486,6.041c-3.69-3.276-8.042-5.902-12.103-8.649 c-6.514-4.405-12.94-8.829-18.89-13.934C124.886,40.789,127.666,37.28,130.642,33.955z M119.289,48.06 c4.028,3.618,8.214,7.026,12.605,10.237c5.787,4.23,11.69,9.367,17.938,13.22c-1.956,2.824-3.877,5.679-5.675,8.604 c-5.357-4.966-12.248-9.025-17.937-13.429c-4.472-3.462-8.999-6.816-13.665-9.968C114.848,53.888,117.068,50.975,119.289,48.06z M105.697,63.859c0.616-0.204,1.214-0.513,1.728-1.078c0.791-0.867,1.517-1.802,2.282-2.695 c5.121,3.853,10.059,7.948,14.959,12.095c5.005,4.235,10.424,10.025,16.608,12.837c-1.005,1.783-2.024,3.561-2.941,5.381 c-0.705,1.4-0.435,2.92,0.316,4.116c-0.248-0.033-0.511,0.004-0.767,0.008c-9.941-10.528-21.062-20.121-32.655-29.238 C105.472,64.854,105.646,64.38,105.697,63.859z M55.683,173.86c-0.597,0.083-1.158,0.28-1.668,0.592 c-0.828-0.869-1.669-1.728-2.476-2.615c-3.192-3.513-6.763-6.33-10.595-9.105c-6.272-4.541-12.148-9.975-18.521-14.521 c1.338-1.386,2.765-2.681,4.136-4.034c4.179,4.086,8.516,8.008,13.074,11.675c4.876,3.924,12.355,11.377,18.962,11.104 c2.301-0.096,3.291-2.682,1.809-4.367c-1.848-2.102-4.311-2.833-6.776-4.1c-3.788-1.946-7.291-4.374-10.745-6.85 c-4.568-3.272-8.862-6.909-13.1-10.606c2.379-2.27,4.818-4.478,7.26-6.682c5.72,6.005,11.758,11.701,18.091,17.058 c3.258,2.755,7.966,7.606,12.62,8.669C63.5,164.49,59.423,169.052,55.683,173.86z M71.828,155.948 c-0.046-0.053-0.071-0.112-0.122-0.162c-3.61-3.508-9.164-5.649-13.288-8.635c-6.493-4.699-12.612-9.964-18.474-15.425 c2.346-2.082,4.738-4.11,7.113-6.161c4.919,3.556,10.013,6.86,15.261,9.915c4.717,2.746,10.748,7.342,16.519,6.87 c2.905-0.238,3.812-4.501,0.715-5.287c-10.048-2.552-20.298-8.418-29.209-14.345c3.272-2.804,6.521-5.618,9.785-8.425 c5.818,4.164,11.514,8.473,17.079,12.98c4.068,3.295,8.46,8.716,13.286,11.639C84.16,144.416,77.841,150.017,71.828,155.948z M109.987,135.667c-1.201-0.896-2.356-1.112-3.372-0.888c-1.85-2.873-6.135-4.521-9.529-1.608c-0.362,0.311-0.728,0.637-1.09,0.949 c-3.931-4.471-10.849-7.811-15.397-11.243c-5.428-4.098-10.844-8.3-16.635-11.886c1.15-0.997,2.319-1.982,3.463-2.982 c2.79-2.44,2.13-6.084,0.044-8.393c2.597-1.629,4.171-5.583,1.697-8.763c-11.803-15.16-27.529-25.8-42.562-37.453 c-2.652-2.056-8.262-7.952-13.793-12.068c0.064-0.085,0.138-0.159,0.203-0.244c43.429,32.695,80.591,70.526,117.127,109.937 C123.448,145.871,116.758,140.713,109.987,135.667z M173.251,161.259c-3.453,4.136-8.349,9.414-9.772,14.84 c-0.679-0.814-1.479-1.606-2.328-2.385C122.271,121.773,71.958,70.941,15.452,38.156c2.12-2.436,4.44-4.682,6.871-6.815 c51.609,39.866,102.255,80.539,143.872,131.161c2.641,3.212,8.309-1.144,5.775-4.456C132.463,106.367,79.067,65.422,25.856,28.502 c0.97-0.763,1.881-1.587,2.882-2.315c4.571-3.321,11.653-6.61,15.825-11.147c1.867,3.88,5.19,7.777,8.673,11.341 c-3.081-2.381-6.129-4.775-9.103-7.199c-1.776-1.448-4.322,0.971-2.563,2.563c29.669,26.826,64.221,49.727,91.274,79.342 c0.248,0.497,0.564,1.004,1.031,1.523c1.832,2.034,3.722,4.026,5.579,6.044c6.243,7.48,11.995,15.401,17.053,23.933 c1.573,2.654,4.667,2.169,6.19,0.374c6.404,6.659,13.635,14.304,21.902,17.584C179.836,151.684,176.032,157.928,173.251,161.259z"/></symbol><symbol id="sketch-2" viewBox="0 0 190.287 190.287"><title>sketch-2</title><g> <path d="M28.171,127.031C28.251,126.922,28.046,126.932,28.171,127.031L28.171,127.031z"/> <path d="M163.447,6.704c1.328-0.708,1.115-2.897-0.71-3.031c-19.68-1.445-39.498,1.077-59.331-0.26 c-2.13-2.05-4.948-3.089-7.887-3.361c-3.238-0.299-5.975,0.701-7.922,2.44c-0.275-0.223-0.604-0.396-1.041-0.424 C76.768,1.441,66.993,2.56,57.203,2.716c-9.377,0.149-18.371-2.642-27.661-0.283c-0.191,0.048-0.35,0.134-0.488,0.238 c0.004-0.053,0.007-0.121,0.011-0.172c0.108-1.385-2.06-1.634-2.389-0.323c-6.546,26.074-2.389,54.113-2.1,80.697 c0.382,35.171-1.298,70.361-1.402,105.534c-0.003,1.025,0.857,1.88,1.88,1.88h0.699c0.769,0,1.266-0.395,1.547-0.91 c19.524,0.326,39.055-0.233,58.583,0.02c24.438,0.317,49.163-3.91,73.477-0.745c0.577,0.547,1.234,0.955,1.98,0.892 c0.55-0.049,1.223-0.484,1.135-1.136c-0.007-0.053-0.039-0.096-0.05-0.147c0.073-0.068,0.172-0.106,0.235-0.184 c1.177,0.059,2.383-0.849,1.876-2.262c-4.188-11.652-0.589-25.807,0.853-37.77c1.843-15.279,0.614-31.208,0.364-46.562 C165.256,70.835,170.765,36.702,163.447,6.704z M162.188,118.94c-1.22-1.021-2.716-1.77-4.045-2.616 c-2.595-1.648-5.175-3.32-7.738-5.016c-0.066-2.97-0.142-5.959-0.19-8.896c-0.07-4.195,0.019-8.435,0.179-12.696 c0.755,2.18,3.453,4.224,5,5.702c1.712,1.634,4.176,4.814,6.644,5.092c0.004,0,0.007-0.002,0.011-0.002 c0.021,2.866,0.036,5.732,0.083,8.6c0.024,1.465,0.02,2.93,0.025,4.395c-0.113-0.011-0.21-0.06-0.346-0.003 c0.345-0.142-1.005-0.947-1.303-1.159c-1.025-0.734-1.951-1.588-2.87-2.448c-1.973-1.846-3.765-3.856-5.678-5.758 c-0.452-0.45-1.286,0.148-0.903,0.696c1.978,2.825,4.479,5.372,6.921,7.794c0.781,0.777,2.715,3.139,4.188,2.562 C162.169,116.436,162.182,117.688,162.188,118.94z M151.116,156.577c1.02,1.202,2.102,2.352,3.175,3.508 c1.14,1.229,2.997,4.123,4.952,4.038c0.191-0.008,0.353-0.088,0.49-0.192c-0.173,1.55-0.37,3.097-0.485,4.651 c-1.071-1.305-2.695-2.335-3.899-3.362c-1.527-1.305-3.101-2.509-4.689-3.678c0.104-1.781,0.102-3.585,0.169-5.375 C150.932,156.303,151.012,156.456,151.116,156.577z M150.877,154.566c0.082-2.568,0.077-5.15,0.102-7.728 c1.905,3.56,4.614,6.894,7.145,9.94c0.563,0.678,1.312,1.665,2.183,2.309c-0.149,1.206-0.3,2.384-0.442,3.599 c-0.062-0.066-0.086-0.149-0.178-0.198c-0.065-0.035-1.162-1.322-1.545-1.658c-1.202-1.058-2.372-2.154-3.549-3.242 c-1.021-0.945-2.038-1.925-3.21-2.682C151.266,154.831,151.078,154.698,150.877,154.566z M153.877,166.689 c1.524,1.511,3.073,3.656,5.128,4.405c0.019,0.007,0.036-0.004,0.056,0.001c-0.092,2.181-0.093,4.354,0.075,6.507 c-1.152-0.966-2.231-2.036-3.303-3.085c-1.661-1.629-3.396-3.215-5.226-4.674c0.584-0.73,0.503-1.906-0.349-2.396 c0.123-1.43,0.196-2.87,0.29-4.307C151.599,164.355,152.707,165.529,153.877,166.689z M154.087,59.234 c1.531,1.768,3.064,3.534,4.71,5.197c0.938,0.946,2.02,2.018,3.336,2.384c-0.006,1.298-0.008,2.596-0.015,3.894 c-0.553-0.505-1.133-0.987-1.632-1.484c-1.604-1.599-3.194-3.208-4.854-4.75c-0.471-0.438-2.351-2.206-3.734-2.564 c0.072-1.598,0.134-3.196,0.186-4.792C152.733,57.897,153.577,58.646,154.087,59.234z M152.132,55.271 c0.049-1.852,0.036-3.696,0.044-5.542c0.414,0.563,0.795,1.027,0.962,1.241c1.408,1.801,3.006,3.456,4.611,5.078 c1.293,1.306,2.679,2.978,4.402,3.693c-0.005,1.45-0.002,2.899-0.008,4.349c-0.276-0.186-0.567-0.35-0.826-0.565 c-1.302-1.072-2.478-2.305-3.655-3.508C156.669,59.001,154.029,55.527,152.132,55.271z M156.188,68.021 c1.604,1.793,3.594,5.041,5.914,6.013c-0.008,1.196-0.013,2.391-0.019,3.587c-0.486-0.352-0.964-0.848-1.385-1.182 c-1.087-0.863-2.111-1.808-3.142-2.738c-1.949-1.762-3.855-3.641-6.002-5.171c0.095-1.66,0.18-3.321,0.263-4.98 C153.102,64.918,155.885,67.684,156.188,68.021z M156.877,75.986c1.216,1.239,3.131,3.836,5.161,3.578 c0.013-0.001,0.023-0.015,0.036-0.017c-0.008,1.718-0.021,3.434-0.025,5.152c-1.462-1.051-2.833-2.23-4.178-3.425 c-2.314-2.056-4.434-4.307-6.452-6.652c-0.065-0.076-0.143-0.061-0.214-0.103c0.08-1.333,0.157-2.668,0.235-4.002 C153.27,72.323,155.075,74.15,156.877,75.986z M156.522,82.622c1.448,1.466,3.434,3.846,5.517,4.851 c-0.003,1.852-0.021,3.702-0.019,5.555c-1.692-1.365-3.64-2.433-5.303-3.886c-2.229-1.947-4.239-4.215-5.949-6.627 c-0.008-0.01-0.02-0.007-0.026-0.016c0.104-1.956,0.224-3.918,0.341-5.88C152.827,78.681,154.623,80.7,156.522,82.622z M155.479,90.382c1.688,1.722,4.012,4.247,6.544,4.494c0.003,1.092-0.002,2.183,0.004,3.275 c-0.433-0.443-0.931-0.836-1.443-1.249c-1.229-0.991-2.435-2.012-3.627-3.048c-1.146-0.997-2.251-2.039-3.356-3.082 c-0.773-0.729-1.457-1.687-2.409-2.182c-0.276-0.143-0.562-0.081-0.758,0.088c0.054-1.329,0.134-2.667,0.2-4 C152.11,86.691,153.724,88.594,155.479,90.382z M162.158,56.482c-0.053-0.043-0.101-0.094-0.152-0.137 c-0.28-0.232-0.565-0.257-0.828-0.202c-0.353-0.304-0.706-0.608-1.054-0.918c-1.139-1.015-2.241-2.072-3.324-3.146 c-0.312-0.309-3.429-3.628-4.602-5.153c-0.027-2.736-0.135-5.46-0.294-8.175c1.778,3.211,4.369,6.138,6.663,8.922 c0.92,1.116,2.032,2.807,3.495,3.221c0.032,0.009,0.055-0.006,0.087,0.001C162.151,52.758,162.161,54.62,162.158,56.482z M162.146,48.462c-0.413-0.275-0.821-0.538-1.206-0.869c-1.231-1.059-2.376-2.217-3.476-3.41c-1.963-2.133-4.15-4.39-5.617-6.909 c-0.015-0.026-0.039-0.024-0.057-0.044c-0.075-1.079-0.229-2.143-0.329-3.218c3.041,3.762,7.92,9.462,10.627,9.634 C162.098,45.251,162.141,46.856,162.146,48.462z M162.062,41.319c-0.427-0.325-1.526-1.008-1.896-1.305 c-1.207-0.97-2.316-2.066-3.418-3.151c-1.887-1.855-3.697-3.79-5.573-5.657c-0.153-1.351-0.352-2.693-0.545-4.037 c0.322,0.441,0.752,0.857,1.104,1.243c1.462,1.603,3.029,3.128,4.586,4.639c1.223,1.188,3.527,4.133,5.689,5.075 C162.021,39.19,162.052,40.254,162.062,41.319z M161.962,35.189c-1.745-1.421-3.6-3.322-5.102-4.68 c-1.349-1.219-2.69-2.455-4.068-3.641c-0.687-0.591-1.445-0.853-2.09-1.341c-0.101-0.076-0.206-0.086-0.303-0.058 c-0.312-1.954-0.682-3.899-1.14-5.828c-0.01-0.043-0.052-0.053-0.065-0.092c2.441,2.029,4.894,4.05,7.414,5.979 c1.458,1.116,3.303,2.836,5.229,3.574C161.877,31.131,161.937,33.16,161.962,35.189z M161.073,7.08 c0.19,3.243,0.331,6.486,0.445,9.729c-4.222-2.085-7.991-4.988-10.812-8.767C154.254,7.728,157.751,7.404,161.073,7.08z M143.567,8.641c1.396,2.895,3.724,5.194,6.173,7.302c1.789,1.54,3.707,2.933,5.595,4.347c1.521,1.137,3.134,3.074,5.043,3.43 c0.662,0.123,1.509-0.448,1.215-1.215c-1.102-2.875-5.766-4.804-8.203-6.483c-3.022-2.084-6.345-4.418-8.551-7.479 c1.5-0.117,2.965-0.251,4.448-0.379c2.842,4.998,7.507,8.242,12.082,11.556c0.079,0.057,0.157,0.065,0.236,0.1 c0.056,1.899,0.118,3.798,0.163,5.697c-0.52-0.337-1.04-0.667-1.535-1.011c-2.95-2.058-5.847-4.192-8.708-6.37 c-0.891-0.678-8.973-6.336-11.915-9.185C140.945,8.869,142.241,8.74,143.567,8.641z M132.424,9.207 c1.877-0.048,3.755-0.084,5.628-0.184c1.264,3.048,7.429,7.454,8.595,8.468c0.558,0.485,1.162,0.917,1.728,1.394 c-0.112-0.023-0.211-0.084-0.326-0.083c-0.001,0-0.001-0.001-0.001-0.001c-1.212-0.921-3.244-0.172-4.588-0.024 c-0.357,0.039-0.719,0.049-1.078,0.082c0.135-0.209,0.28-0.393,0.371-0.714c0.285-1.007-0.971-1.671-1.7-0.99 c0.236-0.22,0.214-0.09-0.274-0.253c-0.486-0.161-0.979-0.599-1.373-0.912c-1.21-0.963-2.292-2.094-3.349-3.218 c-0.919-0.978-1.787-2.002-2.703-2.983c-0.283-0.303-0.695-0.588-1.125-0.481C132.457,9.25,132.478,9.237,132.424,9.207z M131.622,9.233c-0.083,0.111-0.136,0.241-0.085,0.378c0.08,0.211,0.124,0.226,0.152,0.207c-0.008,0.017-0.011,0.01-0.021,0.046 c-0.164,0.596,0.413,1.249,0.729,1.69c1.139,1.594,2.374,3.119,3.679,4.579c0.578,0.647,2.02,2.134,3.438,2.944 c-1.532,0.09-3.066,0.147-4.6,0.205c0.008-0.222-0.041-0.447-0.222-0.619c-0.186-0.176-0.681-0.944-1.091-1.287 c-0.897-0.75-1.685-1.676-2.468-2.54c-1.502-1.657-3.148-3.532-4.188-5.603C128.501,9.247,130.057,9.266,131.622,9.233z M125.329,9.233c0.701,2.455,2.485,4.774,3.984,6.7c0.605,0.778,1.592,2.392,2.732,3.386c-0.952-0.039-2.067-0.101-3.22-0.148 c-0.009-0.246-0.079-0.481-0.289-0.644c-1.697-1.316-3.247-2.834-4.681-4.437c-0.635-0.709-1.324-1.487-1.999-2.293 c-0.14-0.485-0.458-0.885-0.896-1.123c-0.422-0.552-0.804-1.114-1.149-1.685C121.637,9.111,123.477,9.196,125.329,9.233z M125.452,19.201c-1.444,0.084-2.822,0.267-3.857,0.766c0.188-1.656,0.278-3.367,0.32-4.766c0.062,0.08,0.124,0.164,0.186,0.243 C123,16.617,124.123,18.154,125.452,19.201z M119.758,25.86c0.659-0.55,1.105-1.809,1.429-3.317 c3.203,1.951,10.472,0.558,13.561,0.469c2.132-0.062,8.975,0.524,12.221-1.029c4.084,48.064-3.91,96.978,0.27,145.209 c-19.106-0.364-38.277,0.3-57.385,0.396c-15.529,0.076-32.516-1.886-47.901,0.974c-5.488-47.451,1.206-96.423-0.557-144.281 c0.148,0.046,0.288,0.101,0.467,0.11c4.507,0.254,9.075-0.272,13.57-0.557c3.805-0.242,9.565,0.565,13.163-1.041 c-0.12,0.78-0.232,1.559-0.35,2.344c-0.132,0.875,0.359,1.519,0.983,1.816c0.013,0.557,0.293,1.114,0.907,1.279 c2.922,0.787,5.703,1.046,8.738,1.263c1.002,0.072,1.833-0.89,1.836-1.836c0.021-6.752,6.072-4.955,11.44-5.159 c5.026-0.19,14.057-2.089,14.964,4.26c0.12,0.843,1.055,1.34,1.812,1.38c3.107,0.162,5.988,0.324,9.086-0.015 C119.28,27.987,119.854,26.848,119.758,25.86z M118.38,8.865c0.12,0.535,0.26,1.064,0.476,1.57 c-2.113,0.004-4.235,0.012-6.354,0.089c-0.583-0.497-1.23-0.911-1.817-1.43c-0.472-0.416-0.8-0.913-1.095-1.427 C112.458,8.2,115.379,8.625,118.38,8.865z M107.995,7.349c0.369,1.238,1.062,2.413,1.929,3.379 c-1.222,0.084-2.447,0.128-3.66,0.289c0.207-1.307-0.078-2.787-0.579-4.129C106.436,7.078,107.229,7.186,107.995,7.349z M86.943,14.059c0.51-0.169,0.912-0.654,0.779-1.399c-0.957-5.348,1.757-9.024,7.297-8.9c2.116,0.047,4.267,0.84,5.825,2.276 c2.232,2.056,0.793,4.318,1.742,6.645c0.434,1.06,1.593,1.462,2.501,0.66c0.063-0.056,0.094-0.132,0.152-0.191 c0.146,0.161,0.307,0.313,0.552,0.348c4.078,0.587,8.236,0.624,12.361,0.632c-0.063,1.973-0.132,3.945-0.319,5.912 c-0.117,1.221-0.252,3.391-0.322,4.408c-3.904,0.422-6.817,1.025-7.476-3.581c-0.126-0.885-1.055-1.284-1.812-1.38 c-9.795-1.245-19.539-0.695-29.354,0.023c-1.007,0.074-1.86,0.789-1.856,1.856c0.016,4.996-1.554,4.92-5.634,4.387 c0.714-2.797,1.326-5.59,1.55-8.458c4.198-0.943,8.472-1.156,12.722-1.833C86.441,15.339,86.849,14.738,86.943,14.059z M85.318,5.729c-0.728,1.811-0.933,3.896-0.334,6.12l-0.02,0.002c-0.032-0.072-0.043-0.145-0.095-0.216 c-1.602-2.184-3.737-3.978-5.744-5.846C81.188,5.723,83.252,5.689,85.318,5.729z M76.73,5.891 c1.557,2.221,3.468,4.24,5.254,6.294c-1.156,0.125-2.314,0.241-3.467,0.388c-0.046-0.19-0.126-0.38-0.282-0.562 C76.881,10.44,75.3,9.039,73.86,7.544c-0.464-0.482-0.92-0.97-1.378-1.457C73.897,6.012,75.314,5.953,76.73,5.891z M70.207,6.201 c0.108,0.157,0.215,0.303,0.296,0.417c1.563,2.178,3.339,4.502,5.286,6.419c-1.172,0.189-2.352,0.334-3.511,0.597 c-0.271-0.238-0.545-0.47-0.804-0.725c-1.068-1.053-2.007-2.24-2.954-3.4c-0.829-1.014-1.628-2.078-2.463-3.109 C67.44,6.344,68.824,6.273,70.207,6.201z M57.203,6.475c2.218,0.083,4.436,0.065,6.654,0.006c1.773,2.397,3.42,4.899,5.226,7.263 c0.217,0.284,0.438,0.586,0.667,0.886c-0.255,0.323-0.415,0.719-0.423,1.147c-0.029,1.461-0.178,2.895-0.359,4.327 c-0.52-0.255-1.095-0.427-1.698-0.552c-0.02-0.043-0.005-0.094-0.033-0.135c-1.541-2.261-3.712-4.123-5.438-6.265 c-1.716-2.13-3.246-4.396-4.738-6.686C57.109,6.468,57.156,6.473,57.203,6.475z M55.101,6.342 c1.151,2.97,2.979,5.704,4.791,8.281c1.066,1.515,2.256,3.342,3.705,4.734c-0.905,0.045-1.817,0.119-2.715,0.224 c0.11-0.041,0.222-0.067,0.326-0.136c0.877-0.581,0.483-1.782-0.51-1.881c0.699,0.07,0.357,0.085-0.07-0.438 c-0.417-0.511-1.021-0.944-1.482-1.425c-1.348-1.408-2.613-2.891-3.849-4.398c-1.244-1.517-2.448-3.066-3.668-4.602 c-0.16-0.201-0.321-0.402-0.475-0.608C52.464,6.195,53.783,6.265,55.101,6.342z M49.279,5.959 c0.746,1.805,1.725,3.439,2.886,5.115c0.994,1.434,5.02,8.158,7.884,8.605c-1.128,0.139-2.208,0.277-3.159,0.337 c-0.483,0.031-0.967,0.067-1.45,0.098c0.049-0.405-0.111-0.84-0.5-1.054c-2.27-1.247-4.171-3.906-5.828-5.82 c-2.14-2.473-4.018-5.113-5.895-7.768C45.236,5.618,47.255,5.794,49.279,5.959z M40.993,5.317 c1.86,3.612,4.451,7.059,6.919,10.218c0.965,1.235,2.495,3.62,4.27,4.8c-1.734,0.114-3.468,0.218-5.201,0.35 c0-0.006,0.006-0.009,0.006-0.015c-0.113-2.131-3.448-4.437-4.793-5.969c-2.657-3.027-5.136-6.204-7.391-9.541 C36.875,5.127,38.935,5.201,40.993,5.317z M28.828,8.231c1.652,2.575,3.315,5.146,5.081,7.641 c1.302,1.84,3.827,6.158,6.521,5.816c0.715-0.091,1.333-0.809,0.878-1.531c-0.62-0.986-1.7-1.575-2.554-2.346 c-1.319-1.19-2.454-2.596-3.574-3.969c-2.207-2.706-4.155-5.604-6.266-8.381c0.005-0.119,0.009-0.263,0.013-0.377 c0.246,0.238,0.588,0.375,1.018,0.331c1.211-0.124,2.416-0.198,3.617-0.24c-0.03,0.132-0.037,0.275,0.043,0.433 c1.75,3.455,4.077,6.618,6.39,9.713c1.038,1.389,2.606,4.249,4.376,5.589c-0.837,0.078-1.678,0.122-2.513,0.216 c-0.967,0.11-1.48,0.811-1.549,1.535c-0.887-0.305-1.985,0.133-2.171,1.258c-0.35-0.461-0.785-0.852-1.235-1.258 c-1.026-0.928-1.961-1.965-2.905-2.974c-1.753-1.873-3.46-3.798-5.295-5.592C28.741,11.875,28.782,9.93,28.828,8.231z M28.558,25.515l0.004,0.006c1.234,1.584,2.465,3.164,3.752,4.706c0.626,0.75,5.079,5.915,5.521,2.324 c0.054-0.438-0.237-0.69-0.59-0.794c-0.023-0.027-0.055-0.059-0.151-0.156c-0.149-0.152-0.32-0.29-0.485-0.424 c-0.473-0.382-0.914-0.8-1.35-1.223c-1.24-1.203-2.397-2.493-3.559-3.769c-0.907-0.997-1.983-2.34-3.117-3.137 c0.024-2.26,0.051-4.365,0.079-6.332c1.268,1.501,2.537,3.001,3.809,4.497c1.108,1.304,3.189,4.716,5.163,4.623 c0.155-0.007,0.302-0.048,0.433-0.116c-0.097,5.171-0.102,10.342-0.047,15.511c-0.337-0.264-0.692-0.521-1.023-0.812 c-1.419-1.241-2.706-2.64-3.979-4.027c-1.528-1.665-2.986-3.391-4.512-5.039C28.522,29.322,28.539,27.393,28.558,25.515z M28.484,34.078c0.823,1.134,1.714,2.228,2.587,3.322c1.185,1.486,4.508,6.515,6.98,6.532c0.022,1.647,0.03,3.294,0.057,4.94 c-0.189-0.091-0.495-0.187-0.621-0.253c-0.557-0.294-1.047-0.736-1.52-1.144c-1.368-1.178-2.608-2.512-3.816-3.849 c-1.085-1.201-2.117-2.447-3.185-3.663c-0.16-0.182-0.326-0.395-0.52-0.566C28.458,37.575,28.47,35.808,28.484,34.078z M28.427,42.334c0.414,0.571,0.814,1.154,1.25,1.702c1.153,1.445,5.655,7.842,8.469,7.158c0.045,2.472,0.074,4.943,0.123,7.415 c-0.266-0.216-0.545-0.421-0.787-0.656c-1.542-1.496-2.969-3.113-4.399-4.714c-0.648-0.726-3.026-4.009-4.694-4.375 C28.401,46.632,28.414,44.467,28.427,42.334z M28.38,50.564c0.429,0.654,1.113,1.473,1.324,1.746 c1.143,1.481,2.334,2.929,3.523,4.374c1.07,1.301,3.049,4.295,5.103,5.219c0.048,2.514,0.099,5.027,0.136,7.541 c-1.772-2.042-3.549-4.1-5.306-6.158c-1.558-1.825-3.072-3.68-4.816-5.25C28.354,55.497,28.367,53.011,28.38,50.564z M28.292,68.494c0.678,1.052,1.359,2.102,2.021,2.993c1.239,1.669,2.49,3.33,3.763,4.972c0.691,0.89,1.533,2.537,2.86,2.396 c0.526-0.055,0.809-0.362,0.877-0.877c0.152-1.147-1.08-2.025-1.752-2.799c-1.407-1.621-2.762-3.287-4.121-4.949 c-1.148-1.405-2.391-2.84-3.637-4.207c0.009-1.944,0.018-3.863,0.028-5.768c1.354,1.769,2.701,3.545,4.047,5.321 c1.494,1.97,3.588,6.076,6.118,6.999c0.052,4.696,0.082,9.393,0.02,14.091c-0.065-0.049-0.168-0.138-0.346-0.344 c-0.322-0.372-0.738-0.679-1.098-1.012c-1.161-1.074-2.221-2.274-3.299-3.431c-1.823-1.955-3.627-3.937-5.516-5.832 C28.268,73.507,28.28,70.992,28.292,68.494z M28.216,84.329c0.008-0.045,0.007-0.083,0.001-0.129 c0.01-1.962,0.019-3.914,0.028-5.86c1.751,2.095,3.458,4.229,5.195,6.331c0.784,0.949,3.188,4.65,5.027,4.123 c-0.043,2.347-0.088,4.694-0.176,7.042c-0.05-0.069-0.062-0.155-0.127-0.216c-1.381-1.267-2.535-2.856-3.723-4.298 c-1.321-1.605-2.639-3.212-3.944-4.83c-0.481-0.596-0.983-1.177-1.469-1.769c-0.358-0.435-0.716-0.599-0.812-0.375V84.329z M28.159,95.017c0.876,1.273,1.751,2.552,2.713,3.781c1.057,1.351,2.136,2.686,3.261,3.98c0.662,0.762,1.641,2.03,2.802,1.886 c0.552-0.067,0.912-0.472,0.796-1.045c-0.206-1.014-1.28-1.785-1.969-2.47c-1.211-1.204-2.355-2.477-3.494-3.749 c-1.329-1.483-2.775-2.92-4.097-4.411c0.012-2.186,0.023-4.372,0.034-6.552c0.829,1.32,2.022,2.698,2.334,3.139 c1.218,1.721,2.473,3.413,3.755,5.086c0.7,0.915,1.85,3.144,3.179,3.144c0.318,0,0.555-0.13,0.74-0.312 c-0.178,4.284-0.406,8.574-0.659,12.869c-0.201-0.281-0.501-0.449-0.816-0.374c-0.055-0.062-0.117-0.13-0.26-0.29 c-0.358-0.402-0.772-0.762-1.143-1.153c-0.892-0.942-1.693-1.978-2.493-2.997c-1.465-1.868-2.748-4.085-4.44-5.757 c-0.083-0.082-0.178-0.08-0.269-0.117C28.142,98.123,28.151,96.569,28.159,95.017z M28.117,102.271 c1.461,2.461,3.166,4.869,4.862,7.104c0.521,0.687,3.479,3.88,4.492,2.403c-0.136,2.28-0.271,4.56-0.402,6.84 c-1.148-1.289-2.6-2.404-3.764-3.654c-1.788-1.919-3.286-4.028-4.919-6.068c-0.094-0.118-0.204-0.133-0.311-0.171 C28.09,106.583,28.104,104.428,28.117,102.271z M27.993,119.556c1.018,1.398,2.01,2.817,3.073,4.181 c0.827,1.062,3.078,4.53,4.887,3.18c0.664-0.494,0.437-1.467-0.417-1.537c0.325,0.026-0.113-0.161-0.303-0.37 c-0.323-0.355-0.722-0.648-1.074-0.975c-0.987-0.917-1.878-1.942-2.773-2.947c-1.116-1.252-2.235-2.516-3.375-3.758 c0.016-1.959,0.03-3.947,0.044-5.934c1.091,1.782,2.515,3.437,3.812,5.004c1.249,1.51,2.838,3.869,4.815,4.432 c0.09,0.026,0.176-0.01,0.265-0.014c-0.244,4.448-0.464,8.896-0.57,13.34c-0.281-0.28-0.662-0.659-0.865-0.817 c-0.996-0.778-1.931-1.645-2.868-2.491c-0.965-0.872-1.907-1.768-2.835-2.676c-0.321-0.314-0.683-0.595-1.042-0.863 c-0.108-0.057-0.219-0.109-0.332-0.154c-0.167-0.052-0.222-0.09-0.264-0.125c-0.026,0.035-0.048,0.07-0.169,0.132 c0.239-0.122,0.125-0.374-0.072-0.469C27.952,124.348,27.974,121.961,27.993,119.556z M27.916,128.109 c0.714,1.206,2.084,2.715,2.245,2.896c1.138,1.269,2.308,2.51,3.519,3.711c0.666,0.659,1.492,1.612,2.556,1.511 c0.047-0.005,0.076-0.04,0.12-0.05c-0.039,2.367-0.112,4.735-0.075,7.099c-0.04,0.055-0.096,0.092-0.124,0.159 c-0.031-0.016-0.027-0.025-0.069-0.043c-0.497-0.212-0.952-0.509-1.399-0.812c-1.227-0.825-2.338-1.833-3.443-2.812 c-0.959-0.852-2.131-2.276-3.424-3.027C27.856,133.928,27.888,131.044,27.916,128.109z M27.795,138.988 c0.263,0.278,0.522,0.562,0.783,0.841c1.341,1.438,2.749,2.832,4.247,4.106c0.931,0.792,2.087,1.812,3.382,1.809 c0.042,0,0.068-0.024,0.109-0.027c0.065,2.238,0.166,4.475,0.324,6.709c-0.769-0.777-1.581-1.489-2.037-2.013 c-2.095-2.401-4.154-4.833-6.306-7.185c-0.161-0.176-0.362-0.184-0.556-0.136C27.76,141.745,27.778,140.372,27.795,138.988z M27.721,144.573c1.686,2.413,3.405,4.805,5.192,7.145c0.906,1.186,2.433,4.061,4.117,4.614c0.139,1.402,0.24,2.807,0.425,4.205 c-0.763-0.843-1.533-1.663-2.233-2.433c-2.458-2.708-4.964-5.439-7.587-7.998C27.666,148.312,27.694,146.455,27.721,144.573z M27.907,186.344c0.029-0.045-0.01-0.098-0.057-0.101c-0.615-0.04-1.229-0.08-1.844-0.12c0.28-0.835,0.522-3.124,0.733-6.492 c1.025,1.375,2.124,2.696,3.279,3.957c0.383,0.417,0.811,0.915,1.264,1.425C29.55,185.296,28.315,185.718,27.907,186.344z M34.732,184.658c-0.872-0.81-1.854-1.55-2.657-2.326c-1.853-1.792-3.645-3.731-5.163-5.827c0.093-1.923,0.178-4.125,0.258-6.51 c1.727,3.474,4.095,6.661,6.48,9.687c1.105,1.4,2.51,3.36,4.139,4.872C36.721,184.571,35.686,184.603,34.732,184.658z M42.363,184.564c-2.35-2.214-4.796-4.185-6.962-6.633c-2.806-3.171-5.326-6.602-7.55-10.202 c-0.163-0.263-0.378-0.357-0.597-0.373c0.058-1.959,0.112-4.078,0.164-6.269c5.35,6.032,9.464,12.853,14.074,19.451 c0.55,0.787,1.38,2.601,2.383,4.068C43.37,184.594,42.861,184.574,42.363,184.564z M48.635,184.78 c-0.118-0.769-1.082-1.407-1.827-0.913c1.086-0.72-16.799-22.678-19.194-24.58c-0.05-0.04-0.102-0.024-0.154-0.05 c0.046-2.09,0.088-4.298,0.129-6.558c1.617,2.095,3.296,4.146,4.907,6.24c1.897,2.466,3.727,5.532,5.993,7.699 c0.164,0.875,0.261,1.755,0.447,2.628c0.054,0.254,0.176,0.445,0.324,0.608c0.025,0.042,0.072,0.06,0.109,0.093 c0.374,0.329,0.9,0.444,1.4,0.351c0.382,0.078,0.777,0.115,1.161,0.188c0.014,0.029-0.003,0.057,0.017,0.085 c2.376,3.608,4.878,7.138,7.264,10.741c0.557,0.841,1.414,2.399,2.446,3.62C50.668,184.881,49.663,184.828,48.635,184.78z M55.296,185.144c-0.051-0.09-0.064-0.19-0.154-0.269c-0.251-0.216-0.863-1.425-1.233-1.895 c-1.158-1.467-2.318-2.931-3.504-4.375c-2.127-2.591-4.174-5.338-6.477-7.794c1.855,0.294,3.731,0.522,5.623,0.699 c2.297,5.338,6.049,9.954,10.312,13.906C58.566,185.344,57.022,185.247,55.296,185.144z M63.885,185.561 c-0.052-0.064-0.078-0.133-0.147-0.194c-4.703-4.144-8.955-8.276-12.062-13.714c2.308,0.168,4.651,0.205,6.991,0.251 c1.094,3.013,3.355,5.777,5.25,8.251c0.799,1.044,2.65,3.925,4.589,5.463C66.965,185.598,65.422,185.56,63.885,185.561z M72.028,185.661c0.004-0.171,0.008-0.346-0.064-0.509c-0.435-0.974-1.561-1.585-2.317-2.285 c-1.553-1.438-2.919-3.091-4.261-4.722c-1.603-1.948-3.494-4.047-5.052-6.182c1.964,0.019,3.935-0.01,5.905-0.041 c2.91,4.974,10.113,16.208,12.636,12.992c0.581-0.739,0.076-1.943-0.968-1.662c0.253-0.068-1.396-1.327-1.734-1.627 c-1.257-1.11-2.361-2.422-3.457-3.688c-1.666-1.926-3.216-3.959-4.706-6.033c1.727-0.037,3.437-0.102,5.159-0.157 c1.932,3.288,4.243,6.449,6.474,9.485c0.891,1.213,2.646,3.922,4.565,4.697C80.146,185.854,76.084,185.743,72.028,185.661z M85.951,185.969c0.146-0.054,0.293-0.059,0.439-0.146c1.005-0.606,0.352-2.295-0.813-1.927 c-0.375,0.119-2.209-1.837-2.496-2.114c-1.288-1.241-2.446-2.622-3.592-3.991c-1.631-1.948-3.075-4.041-4.568-6.093 c1.945-0.064,3.875-0.125,5.803-0.182c1.028,2.751,3.463,5.177,5.267,7.411c1.443,1.787,2.955,3.521,4.465,5.251 c0.501,0.572,0.999,1.242,1.556,1.834C89.993,186.01,87.973,186.002,85.951,185.969z M95.302,185.981 c-0.441-1.283-1.617-2.171-2.535-3.134c-1.562-1.639-3.084-3.315-4.597-4.999c-1.909-2.122-3.756-4.474-5.9-6.383 c1.302-0.035,2.573-0.043,3.86-0.065c2.346,4.021,5.588,7.681,8.421,11.361c0.514,0.667,1.36,2.008,2.355,3.184 C96.371,185.953,95.837,185.975,95.302,185.981z M101.048,185.855c-0.206,0.008-0.412,0.006-0.618,0.013 c-0.277-0.281-1.701-1.771-1.976-2.044c-1.458-1.459-2.795-3.03-4.111-4.617c-2.114-2.546-4.084-5.487-6.476-7.835 c0.657-0.007,1.332-0.03,1.984-0.032c1.097-0.004,2.198,0.003,3.295,0.002c1.724,2.708,3.823,5.24,5.806,7.728 c1.7,2.132,3.715,5.23,6.262,6.575C103.826,185.717,102.439,185.799,101.048,185.855z M107.035,185.551 c0.229-0.44,0.229-1.046-0.102-1.447c-1.934-2.343-4.312-4.395-6.39-6.628c-1.845-1.985-3.585-4.049-5.305-6.134 c1.83,0,3.662,0.005,5.492,0.009c0.206,0.755,0.688,1.486,1.072,2.142c1.434,2.45,2.98,4.824,4.611,7.146 c1.075,1.531,2.275,3.501,3.812,4.718C109.163,185.422,108.102,185.49,107.035,185.551z M113.265,185.171 c0.023-0.096,0.089-0.147,0.095-0.26c0.049-0.903-1.026-1.138-1.61-0.667c0.759-0.61,1.166,0.238,0.414-0.729 c-0.456-0.586-1.032-1.106-1.517-1.672c-1.425-1.666-2.703-3.459-3.972-5.245c-1.153-1.626-2.309-3.252-3.407-4.917 c-0.07-0.105-0.144-0.217-0.215-0.327c1.14,0.002,2.28,0,3.419,0.002c2.301,3.101,4.369,6.38,6.582,9.541 c0.595,0.848,1.989,3.194,3.484,4.061C115.449,185.03,114.358,185.101,113.265,185.171z M118.636,184.824 c0.401-0.495,0.405-1.407-0.38-1.514c-0.161-0.022-1.292-1.364-1.623-1.721c-1.273-1.377-2.41-2.896-3.534-4.396 c-1.444-1.929-2.825-3.906-4.271-5.835c1.458,0.001,2.917-0.006,4.375-0.007c2.295,2.667,4.601,5.312,6.818,8.048 c0.948,1.169,2.519,3.917,4.197,5.081C122.36,184.589,120.498,184.704,118.636,184.824z M126.451,184.359 c0.012-0.054,0.06-0.089,0.062-0.146c0.043-1.12-0.786-1.718-1.521-2.472c-1.203-1.234-2.366-2.51-3.536-3.775 c-2.056-2.225-4.105-4.496-6.282-6.618c1.577-0.004,3.152-0.043,4.729-0.052c2.163,2.428,4.13,5.022,6.137,7.577 c1.133,1.443,2.909,4.48,4.915,5.292C129.454,184.229,127.953,184.277,126.451,184.359z M139.124,183.931 c-0.047-0.059-0.109-0.137-0.136-0.169c-0.637-0.756-1.269-1.518-1.898-2.279c-1.678-2.03-3.348-4.065-5.065-6.061 c-0.923-1.072-2.551-3.559-4.099-3.731c-0.361-0.041-1.554-0.524-1.45,0.641c0.033,0.39,0.342,0.584,0.646,0.58 c-0.04,0.045-0.004,0.144,0.305,0.526c0.505,0.627,1.04,1.228,1.541,1.86c1.345,1.695,2.673,3.403,3.984,5.126 c0.921,1.209,1.865,2.401,2.811,3.592c-1.069,0.029-2.14,0.04-3.21,0.081c0.203-0.209,0.324-0.486,0.273-0.814 c-0.185-1.167-1.102-1.708-1.917-2.5c-1.146-1.111-2.193-2.332-3.242-3.535c-1.77-2.027-3.539-4.045-5.404-5.979 c3.415-0.029,6.827-0.097,10.239-0.169c0.379,0.6,0.893,1.161,1.227,1.626c1.362,1.894,2.794,3.735,4.259,5.55 c1.022,1.269,2.801,4.016,4.773,5.656C141.547,183.927,140.335,183.915,139.124,183.931z M146.893,184.011 c-0.051-0.264-0.164-0.513-0.428-0.656c-2.717-1.493-5.176-5-7.178-7.301c-1.426-1.641-2.819-3.313-4.194-4.995 c1.179-0.03,2.353-0.109,3.529-0.147c2.575,2.904,4.989,5.948,7.416,8.976c0.997,1.244,2.017,2.808,3.144,4.241 C148.419,184.094,147.655,184.032,146.893,184.011z M152.864,184.312c-1.555-2.102-3.703-4.008-5.346-5.907 c-2.243-2.592-4.516-5.176-6.969-7.575c1.405-0.051,2.809-0.123,4.213-0.176c-0.148,0.321-0.073,0.769,0.34,0.869 c1.027,0.252,2.457,2.653,3.116,3.426c1.771,2.072,3.449,4.23,5.141,6.369c0.877,1.109,1.772,2.201,2.66,3.302 C154.967,184.525,153.914,184.385,152.864,184.312z M160.055,185.015c-0.051-0.054-0.109-0.107-0.158-0.161 c-1.953-2.143-3.809-4.378-5.703-6.573c-1.842-2.132-4.707-6.592-7.838-7.692c0.768-0.033,1.535-0.062,2.304-0.097 c2.149,1.999,4.088,4.16,6.092,6.325c1.3,1.405,2.92,3.259,4.781,4.186c0.224,1.362,0.517,2.715,0.909,4.05 C160.312,185.034,160.185,185.03,160.055,185.015z M161.04,153.12c-0.116,0.968-0.241,1.978-0.364,2.958 c-1.176-1.174-2.263-2.441-3.33-3.713c-2.034-2.425-4.247-4.923-5.86-7.659c-0.126-0.214-0.297-0.316-0.476-0.348 c0.005-1.418-0.021-2.84-0.029-4.259c0.777,1.942,3.946,4.786,4.433,5.236c1.512,1.401,3.115,2.879,4.879,3.961 c0.241,0.147,0.641,0.251,1.053,0.284C161.231,150.761,161.182,151.942,161.04,153.12z M161.544,147.282 c-0.294-0.214-0.593-0.423-0.897-0.62c-1.311-0.85-2.54-1.823-3.745-2.813c-0.64-0.526-4.988-4.834-5.156-4.739 c0.364-0.205,0.116-0.839-0.289-0.687c-0.258,0.097-0.373,0.263-0.483,0.432c-0.015-1.88-0.073-3.758-0.104-5.639 c1.584,1.657,3.153,3.331,4.832,4.918c1.849,1.748,3.824,4.171,6.052,5.651C161.676,144.951,161.641,146.118,161.544,147.282z M161.951,140.44c-1.422-1.249-3.073-2.375-4.313-3.425c-2.189-1.855-4.597-3.573-6.8-5.415 c-0.022-1.275-0.055-2.531-0.081-3.805c0.642,0.632,1.728,1.745,1.915,1.918c1.422,1.3,2.828,2.615,4.272,3.893 c1.386,1.225,3.172,3.216,5.1,4.17C162.009,138.663,161.995,139.553,161.951,140.44z M162.148,134.739 c-2.162-1.629-4.298-3.31-6.406-5.01c-0.846-0.682-3.333-3.155-5.015-3.342c-0.039-1.817-0.075-3.61-0.116-5.425 c0.247,0.145,0.643,0.031,0.687-0.35c0.066-0.573,2.441,1.457,2.862,1.823c1.394,1.213,2.729,2.487,4.056,3.771 c0.778,0.754,2.393,2.767,3.982,3.817C162.175,131.597,162.192,133.17,162.148,134.739z M162.011,126.559 c-1.901-1.65-3.763-3.344-5.719-4.93c-0.843-0.684-4.892-3.719-5.705-1.793c-0.051-2.234-0.092-4.446-0.142-6.679 c2.026,1.569,4.125,3.058,6.204,4.549c1.716,1.231,3.499,2.913,5.552,3.54c0.003,1.826,0.042,3.654,0.031,5.479 C162.162,126.672,162.073,126.612,162.011,126.559z"/> </g><path d="M161.391,104.1c-0.161-0.24-0.403-0.329-0.652-0.355c-0.286-0.305-0.561-0.62-0.835-0.929 c-1.477-1.655-2.897-3.359-4.366-5.021c-0.835-0.945-2.028-2.682-3.406-2.784c-1.294-0.097-0.465,1.538-0.209,2.033 c0.111,0.214,0.354,0.213,0.528,0.108c0.238,0.267,0.482,0.527,0.699,0.795c1.39,1.731,2.75,3.484,4.118,5.232 c0.931,1.189,1.837,2.74,3.275,3.345C162.361,107.288,161.938,104.908,161.391,104.1z"/><path d="M67.98,35.972c-7.962,2.593-10.165,12.578-12.202,20.347c-1.695-2.463-3.365-4.931-5.403-7.156 c-0.931-1.017-2.667,0.315-1.91,1.474c2.295,3.514,4.655,6.994,6.455,10.796c0.724,1.53,2.907,0.949,3.355-0.438 c1.18-3.654,2.062-7.394,3.237-11.05c1.623-5.051,4.477-7.691,7.953-11.422C70.457,37.457,69.497,35.478,67.98,35.972z"/><path d="M96.629,48.531c-1.648,0.223-2.749-1.299-4.252-0.912c-0.786,0.202-1.187,0.568-1.627,0.94 c-1.217-0.853-2.478-1.636-3.632-2.59c-1.093-0.904-2.465-0.518-2.977,0.786c-0.401,1.02-0.933,1.97-1.488,2.907 c-0.779-2.132-1.397-4.296-1.557-6.627c-0.136-1.99-2.856-1.943-3.055,0c-0.388,3.777-1.122,7.26-2.82,10.684 c-0.563,1.135,1.028,2.087,1.706,0.997c1.007-1.62,1.738-3.304,2.348-5.033c0.432,1.429,0.922,2.849,1.459,4.285 c0.494,1.321,2.303,1.755,3.091,0.404c0.891-1.528,1.808-3.009,2.648-4.539c1.027,0.683,2.064,1.35,3.019,2.149 c0.647,0.542,1.392,0.674,2.158,0.278c0.406-0.209,0.757-0.571,1.128-0.869c1.577,0.928,3.066,0.914,5.045-0.031 C99.557,50.531,98.204,48.318,96.629,48.531z"/><path d="M132.834,45.73c-1.13,0.374-2.128,1.205-3.045,2.054c-0.837-0.683-1.657-1.394-2.534-2.028 c-0.513-0.371-1.199-0.245-1.722,0c-0.679,0.319-0.988,0.715-1.235,1.144c-0.247-0.43-0.556-0.827-1.234-1.147 c-0.9-0.423-1.764-0.2-2.337,0.613c-0.396,0.559-0.723,1.153-1.05,1.746c-0.58-0.521-1.13-1.075-1.606-1.737 c-0.757-1.049-2.177-1.12-2.921,0c-0.648,0.976-1.412,1.817-2.146,2.677c-0.492-1.268-0.994-2.533-1.176-3.921 c-0.204-1.555-2.551-2.208-2.963-0.401c-0.564,2.471-1.666,4.686-2.45,7.084c-0.401,1.227,1.561,2.079,2.103,0.886 c0.468-1.03,0.958-2.044,1.44-3.06c0.339,1.037,0.66,2.078,0.793,3.179c0.176,1.462,2.295,2.501,3.104,0.841 c0.707-1.45,1.787-2.605,2.82-3.805c0.695,0.711,1.43,1.385,2.221,2.076c0.878,0.767,2.022,0.591,2.685-0.346 c0.31-0.438,0.562-0.903,0.82-1.367c0.264,0.431,0.521,0.841,0.689,1.012c0.649,0.658,1.766,0.659,2.415,0 c0.481-0.489,0.933-0.841,1.159-1.485c0.299-1.436,0.566-1.235,0.802,0.603c0.508,0.398,1.029,0.781,1.562,1.146 c0.629,0.454,1.544,0.219,2.064-0.266c1.059-0.986,2.186-1.907,3.29-2.837C135.376,47.273,134.444,45.197,132.834,45.73z"/><path d="M68.344,68.326c-3.295,1.502-5.834,5.777-7.847,8.689c-1.802,2.608-3.211,5.456-4.31,8.42 c-2.45-4.577-6.41-9.836-9.011-4.801c-0.096,0.186,0.021,0.421,0.242,0.422c4.428,0.005,6.265,6.47,7.313,9.993 c0.51,1.717,3.074,1.795,3.546,0c1.154-4.391,2.971-8.352,5.44-12.151c1.912-2.942,5.243-5.39,6.633-8.564 C70.953,68.959,69.735,67.692,68.344,68.326z"/><path d="M133.026,80.181c-2.917,0.804-5.883,0.593-8.898-0.634c-0.467-0.539-1.517-0.707-2.104-0.272 c-5.275,3.909-4.728-1.355-5.839-6.649c-0.379-1.8-2.816-1.501-3.343,0c-1.304,3.721-2.139,7.604-3.691,11.24 c0.157-0.369-5.2-6.824-5.997-7.806c-0.908-1.118-2.462-0.306-2.885,0.762c-4.748,4.89-8.219,5.108-10.411,0.653 c-0.72-0.911-2.129-0.481-2.675,0.345c-1.093,1.653-2.176,3.22-3.2,4.833c-1.021-2.271-2.095-4.504-3.112-6.832 c-0.433-0.991-2.171-0.986-2.606,0c-1.531,3.471-2.675,6.453-3.194,10.27c-0.174,1.286,1.725,1.895,2.005,0.553 c0.439-2.364,1.208-4.579,2.267-6.664c1.067,2.54,2.31,5.438,2.789,6.837c0.435,1.269,2.4,1.817,3.088,0.404 c4.553-9.349,4.347-0.707,10.859-0.707c3.275,0,5.068-2.916,6.311-5.771c1.778,2.513,3.356,5.139,5.31,7.547 c0.767,0.947,2.119,0.456,2.716-0.35c2.01-2.713,3.047-5.659,3.98-8.703c0.707,2.005,1.592,3.932,2.812,5.91 c0.596,0.968,1.904,1.134,2.726,0.351c3.819-3.635,9.988,1.392,14.398-3.074C135.306,81.436,134.314,79.894,133.026,80.181z"/><path d="M66.883,97.572c-5.602,4.081-9.859,11.874-11.942,18.92c-1.83-2.32-3.775-4.551-6.021-6.467 c-1.129-0.963-2.514,0.471-1.605,1.606c2.554,3.186,4.903,6.347,6.899,9.912c0.743,1.327,3.056,1.15,3.369-0.44 c0.807-4.112,2.37-7.809,4.461-11.431c2.03-3.517,5.157-6.364,7.018-9.921C69.739,98.455,68.265,96.565,66.883,97.572z"/><path d="M90.731,112.7c-0.012-0.048-0.023-0.097-0.035-0.145c-0.166-0.693-1.017-1.23-1.714-0.974 c-0.633,0.233-2.194-0.875-2.63-1.246c-0.814-0.692-2.073-0.659-2.649,0.341c-0.529,0.919-1.18,1.751-1.83,2.584 c-0.97-1.673-1.976-3.354-2.134-5.228c-0.154-1.815-2.431-2.072-3.082-0.417c-1.078,2.741-1.84,5.618-2.27,8.532 c-0.191,1.292,1.521,1.81,1.976,0.545c0.521-1.447,1.006-2.874,1.544-4.281c0.712,1.465,1.557,2.879,2.156,4.45 c0.494,1.293,2.256,1.728,3.036,0.397c0.709-1.208,1.601-2.283,2.445-3.395c1.531,0.929,3.397,1.509,4.793,0.325 C90.753,113.837,90.851,113.201,90.731,112.7z"/><path d="M137.962,111.524c-5.38-1.765-8.711,3.799-12.765-1.631c-0.739-0.99-1.941-1.227-2.908-0.375 c-2.768-0.801-5.535-1.604-8.302-2.404c-0.818-1.213-2.307-1.115-3.142,0c-1.521,2.029-3.191,3.928-4.787,5.892 c-1.793-2.175-2.611-4.552-3.277-7.496c-0.296-1.312-2.321-1.623-2.931-0.383c-1.455,2.952-3.024,5.719-4.01,8.864 c-0.492,1.57,1.815,2.108,2.402,0.663c0.665-1.638,1.507-3.149,2.393-4.638c0.838,2.591,2.062,4.862,4.234,6.962 c0.903,0.874,2.097,0.544,2.793-0.36c1.497-1.938,3.11-3.774,4.673-5.654c3.185,3.849,6.755,5.146,11.007,2.327 c0.979,1.062,2.015,2.057,3.131,3.051c0.467,0.414,1.187,0.724,1.816,0.479c3.149-1.223,7.149-0.947,10.021-2.642 C139.43,113.518,139.138,111.91,137.962,111.524z"/><path d="M67.056,135.358c-4.303,3.809-7.915,8.306-10.477,13.408c-1.604-3.373-3.814-6.476-7.163-8.213 c-1.262-0.655-2.362,1.066-1.439,1.868c-0.001,0-0.002,0.001-0.002,0.001c3.407,3.399,5.21,7.015,6.746,11.531 c0.607,1.786,2.936,1.729,3.564,0c2.276-6.261,6.472-11.56,11.428-15.936C71.535,136.409,68.865,133.759,67.056,135.358z"/><path d="M137.483,146.408c-1.197-1.88-1.526-2.012-3.523-4.008c-0.753-0.753-1.785-0.614-2.553,0 c-2.33,1.865-2.107,1.865-4.438,0.001c-0.784-0.628-1.773-0.729-2.55,0c-1.387-0.577-2.772-1.154-4.159-1.73 c-0.662-1.025-1.927-1.141-2.827-0.364c-1.782,1.534-3.56,3.012-5.244,4.612c-1.012-1.871-2.109-3.669-3.105-5.648 c-0.628-1.248-2.453-1.099-3.119,0c-3.264,5.382-4.172,8.025-7.351,1.39c-0.596-1.244-2.518-1.13-3.146,0 c-3.436,6.181-2.948,4.559-6.222,0.326c-0.627-0.81-1.924-0.608-2.583,0c-4.142,3.829-3.417,5.691-7.758-0.245 c-0.684-0.935-2.242-1.206-2.867,0c-0.47,0.907-1.825,5.585-1.85,5.596c-0.726,0.316-0.523,1.299,0,1.668 c0.056,0.04,0.112,0.078,0.168,0.117c0.381,0.269,0.997,0.163,1.304-0.168c0.919-0.99,1.492-2.136,2.062-3.302 c1.281,1.533,2.673,2.915,4.076,4.482c0.793,0.886,2.225,0.568,2.809-0.362c3.073-4.904,3.128-4.709,5.966,0.018 c0.573,0.955,2.077,1.273,2.865,0.369c1.29-1.479,2.434-2.722,3.488-4.114c0.9,1.469,1.839,2.902,2.74,4.439 c0.57,0.972,2.059,1.243,2.852,0.367c1.811-2.001,3.369-4.057,4.853-6.221c0.842,1.588,1.647,3.196,2.613,4.718 c0.467,1.152,2.014,1.91,3.006,0.794c3.947-4.439,4.426-5.786,7.938-1.396c0.472,0.59,1.578,0.703,2.185,0.282 c2.606-1.812,2.259-2.316,4.804-0.281c0.836,0.67,1.715,0.67,2.551,0c2.459-1.966,2.756-0.669,4.95,0.729 C136.687,149.285,138.292,147.68,137.483,146.408z"/></symbol><symbol id="logout" viewBox="0 0 187.357 187.358"><title>logout</title><path d="M169.337,125.245c-1.339-1.922-3.297-2.818-5.631-2.291c-0.163,0.037-0.326,0.074-0.49,0.11 c-1.649,0.373-2.944,1.823-3.4,3.399c-0.118,0.41-0.237,0.82-0.355,1.229c-0.476,1.641,0.08,3.169,1.11,4.249 c-0.107,0.468-0.068,1.813,0.063,4.761c0.185,4.141,0.107,8.301,0.092,12.443c-0.031,8.146-0.282,16.292-0.414,24.438 c0.021-1.27-37.562,1.66-42.177,1.813c-17.276,0.576-34.592-0.354-51.812-1.663c-15.845-1.205-31.602-3.386-47.263-6.035 c-14.206-2.404-7.375-28.556-7.167-40.091c0.634-35.291,0.844-70.561,2.914-105.8c12.552,0.528,26.357,2.204,37.046-4.057 c1.55-0.908,1.55-3.222,0-4.13C39.524,6.4,23.045,9.741,9.131,9.696c-3.439-0.011-5.761,2.742-5.99,5.989 c-3.638,51.514-1.772,103.153-3.14,154.735c-0.06,2.234,1.662,4.725,3.933,5.164c53.336,10.326,109.481,15.556,163.27,5.76 c2.377-0.432,3.988-2.997,4.009-5.264C171.329,162.875,177.255,136.609,169.337,125.245z"/><path d="M187.343,11.913c0.161-2.533-2.217-4.573-4.606-4.605c-32.204-0.45-64.083-6.584-96.323-5.682 c-0.32-0.185-0.645-0.395-0.965-0.578c-1.172-0.669-2.227,0.166-2.416,1.17c-1.77,1.34-1.245,4.682,1.58,4.87 c1.321,0.088,2.637,0.222,3.957,0.324c7.849,5.941,14.46,12.756,21.282,20.048c-0.043,0.046-0.089,0.077-0.131,0.126 C97.468,41.958,84.736,55.187,70.998,68.117c-1.449,1.363-1.082,3.268,0.031,4.46c-0.645,0.823-0.876,1.943-0.191,3.041 c4.348,6.976,8.944,13.967,14,20.45c3.17,4.065,9.508,13.371,15.689,11.274c0.606-0.204,1.173-0.654,1.612-1.195 c-0.051,2.496,3.58,4.706,5.491,2.375c12.114-14.771,27.417-26.203,41.055-39.438c3.745,3.991,7.571,7.904,11.427,11.789 c3.985,4.016,8.072,9.099,13.059,11.862c3.062,1.696,6.505-1.067,5.962-4.148C191.476,66.68,185.818,35.934,187.343,11.913z M102.783,104.424c0.001-0.289,0.015-0.576-0.106-0.866c-0.983-2.351-2.214-3.164-4.361-4.499 c-3.247-2.02-5.884-5.263-8.323-8.146c-4.976-5.882-8.956-12.645-14.261-18.243c2.759-1.744,5.401-3.69,7.992-5.714 c1.146,5.649,4.072,10.724,7.716,15.215c4.494,5.538,10.095,11.986,16.509,15.654C106.171,99.974,104.435,102.161,102.783,104.424 z M111.28,93.939c-4.554-4.051-9.68-7.415-14.03-11.791c-4.841-4.867-8.876-10.595-11.082-17.121 c1.588-1.311,3.09-2.746,4.623-4.136c3.753,5.47,7.845,10.66,12.303,15.596c3.715,4.112,7.904,9.268,12.783,12.53 C114.336,90.65,112.766,92.256,111.28,93.939z M119.699,84.976c-3.365-3.767-7.955-6.858-11.521-10.208 c-5.34-5.014-10.288-10.432-14.733-16.253c2.69-2.555,5.283-5.223,7.835-7.925c4.356,4.411,8.913,8.616,13.645,12.624 c4.601,3.898,9.909,9.139,15.733,11.079C126.966,77.817,123.278,81.347,119.699,84.976z M133.748,71.308 c-0.09-0.216-0.2-0.427-0.354-0.618c-4.129-5.189-11.237-8.688-16.451-12.798c-4.309-3.397-8.398-7.046-12.468-10.719 c2.378-2.602,4.627-5.222,6.92-7.843c5.581,4.813,11.43,9.301,17.065,14.053c4.082,3.442,7.465,8.287,11.385,12.06 C137.813,67.399,135.792,69.362,133.748,71.308z M173.028,80.867c-2.358-2.051-4.929-3.921-7.145-5.767 c-5.675-4.726-11.374-9.441-16.925-14.314c-1.46-1.283-3.154-0.877-4.142,0.182c-3.268-4.504-8.807-8.193-12.677-11.268 c-5.87-4.664-12.02-8.968-18.033-13.447c0.656-0.756,1.356-1.521,2.006-2.273c1.902-2.201,1.244-4.914-0.361-6.517 c1.212-1.402,1.601-3.48-0.123-5.053c-5.66-5.164-12.148-9.948-18.791-14.319c2.006,0.192,4.009,0.415,6.013,0.627 c0.106,0.415,0.301,0.83,0.727,1.211c12.153,10.906,24.715,21.305,36.623,32.489c11.644,10.933,21.771,24.125,33.768,34.526 C173.656,78.253,173.401,79.568,173.028,80.867z M127.177,17.118c10.462,5.395,19.679,11.928,28.378,19.882 c7.271,6.648,12.457,16.619,20.313,22.266c0.247,0.177,0.51,0.271,0.774,0.323c-0.258,2.999-0.57,5.988-1.024,8.956 c-7.245-10.443-17.708-19.298-26.836-27.696c-11.907-10.958-24.725-21.125-37.439-31.188c22.156,2.589,44.241,5.876,66.543,6.666 c-0.314,6.928-0.337,13.901-0.404,20.869c-2.961-2.918-6.363-5.543-9.257-7.99c-5.776-4.882-11.897-9.568-18.392-13.452 c-2.399-1.435-4.228,2.045-2.127,3.639c5.752,4.362,11.498,8.618,16.812,13.519c4.451,4.105,8.207,9.385,12.797,13.346 c-0.049,1.916-0.087,3.832-0.175,5.743c-4.376-7.087-12.603-13.275-18.269-18.32c-8.952-7.972-18.993-15.642-30.42-19.592 C126.674,13.474,125.515,16.261,127.177,17.118z"/></symbol><symbol id="download" viewBox="0 0 189.91 189.91"><title>download</title><path d="M153.231,55.167c-0.669,0.254-1.292,0.58-1.897,0.935c-9.805-0.783-19.959-0.383-29.87-0.288 c-0.894-0.824-1.815-1.622-2.727-2.432c0.733-8.309,1.34-16.638,1.96-24.954c0.545-7.299,2.588-17.02-1.004-23.728 c-0.69-1.289-1.989-1.647-3.171-1.361c-3.726-3.195-9.782-2.854-14.5-3.15c-8.16-0.514-16.544,0.091-24.659,0.968 c-0.956,0.103-1.573,0.606-1.918,1.229c-2.238-0.398-4.827,0.876-4.862,3.832c-0.168,13.9-0.856,27.823-0.89,41.731 c-0.032-0.014-0.06-0.031-0.091-0.044c-1.049-0.452-1.97,0.981-0.919,1.573c0.35,0.198,0.681,0.438,1.028,0.645 c0.008,2.647-0.011,5.295,0.061,7.941c-3.772-1.249-8.588-0.931-12.036-1.017c-6.089-0.151-12.328-0.033-18.391,0.605 c-1.829,0.192-2.843,1.461-3.098,2.835c-0.063-0.031-0.123-0.067-0.186-0.099c-2.699-1.336-4.793,2.301-2.343,4.008 c23.953,16.685,42.566,39.024,61.523,60.955c2.811,3.254,7.223-0.488,6.133-3.944c0.542-0.281,1.033-0.68,1.349-1.351 c5.841-12.411,18.664-22.932,28.159-32.507c5.891-5.94,11.859-11.804,17.785-17.71c3.093-3.081,7.56-6.247,8.537-10.699 C157.688,56.957,155.689,54.231,153.231,55.167z M97.06,6.535c5.233,0.222,11.049,2.62,16.336,2.549 c-0.646,4.421-0.302,9.355-0.124,13.993c-3.375-2.095-6.823-4.092-10.044-6.46c-4.635-3.407-9.122-6.996-13.842-10.286 C91.945,6.381,94.505,6.426,97.06,6.535z M87.341,6.284c-0.669,0.669-0.838,1.976,0.152,2.73 c8.179,6.228,16.285,15.253,25.824,19.802c-0.072,2.084-0.158,4.173-0.244,6.26c-3.992-4.342-9.115-7.911-13.706-11.413 c-6.87-5.241-13.755-10.457-20.717-15.575c0.001-0.623,0.017-1.246,0.014-1.869c0-0.118-0.025-0.219-0.034-0.332 C81.529,6.121,84.434,6.216,87.341,6.284z M78.622,11.815c5.469,4.361,11.058,8.569,16.544,12.911 c6.075,4.808,11.418,10.82,17.745,15.246c-0.094,2.756-0.183,5.511-0.179,8.265c-10.794-8.879-22.504-16.754-34.381-23.388 C78.492,20.505,78.577,16.159,78.622,11.815z M96.865,115.613C81.214,97.133,64.084,76.93,43.194,64.337 c3.075,0.025,6.152,0.014,9.228,0.028c0.077,0.232,0.196,0.456,0.4,0.65c8.848,8.453,17.403,17.164,26.063,25.807 c6.279,6.267,13.568,13.964,22.022,17.469C99.339,110.665,97.926,113.093,96.865,115.613z M103.148,105.104 c-7.012-7.238-15.848-13.163-23.202-20.117c-7.327-6.929-14.388-14.15-22.224-20.5c4.096,0.327,8.744,1.376,12.771,0.863 c4.59,8.91,29.923,30.842,36.326,35.299C105.557,102.113,104.293,103.582,103.148,105.104z M109.81,97.301 c-4.978-4.338-30.607-25.374-37.336-32.346c0.035-0.01,0.074-0.014,0.109-0.025c1.661-0.506,2.178-2.153,1.59-3.565 c1.33-0.353,2.477-1.401,2.58-3.208c0.057-1.008,0.112-2.019,0.169-3.028C84.843,61.49,91.8,69.607,98.69,76.624 c3.595,3.661,10.462,12.958,16.913,14.693C113.667,93.261,111.715,95.249,109.81,97.301z M123.162,83.731 c-1.359,1.391-2.802,2.83-4.268,4.29c-16.199-8.575-26.421-25.968-41.797-36.038c0.188-3.338,0.368-6.678,0.539-10.019 c7.992,7.439,16.006,14.856,23.987,22.306c6.202,5.789,14.427,15.923,23.191,17.758c0.013,0.003,0.023-0.001,0.036,0.001 C124.291,82.599,123.722,83.16,123.162,83.731z M127.131,79.734c-0.102-0.438-0.366-0.855-0.857-1.162 c-17.805-11.114-31.731-27.299-48.482-39.763c0.164-3.347,0.274-6.697,0.402-10.046c12.368,7.845,23.983,16.445,34.734,26.114 c0.037,0.679,0.032,1.358,0.084,2.036c0.105,1.405,0.946,2.217,1.933,2.494c0.253,0.577,0.726,1.052,1.508,1.214 c1.059,0.219,2.156,0.394,3.235,0.592c4.132,4.033,8.139,8.226,11.991,12.631c0.238,0.274,0.5,0.442,0.763,0.581 C130.672,76.195,128.894,77.956,127.131,79.734z M142.851,64.022c-2.323,2.32-4.642,4.645-6.965,6.962 c-0.11-0.293-0.249-0.584-0.486-0.859c-2.232-2.585-4.583-5.103-7-7.577c4.952,0.596,9.981,0.96,14.935,0.973 C143.174,63.686,143.015,63.858,142.851,64.022z"/><path d="M152.942,148.618c-3.269-3.125-4.915-2.66-9.861-3.259c-11.533-1.399-23.092-2.535-34.675-3.432 c-2.92-0.226-5.856-0.402-8.802-0.546c-0.21-0.193-0.433-0.372-0.643-0.566c-0.854-0.802-1.953-0.336-2.361,0.455 c-17.643-0.675-35.582,0.233-52.78,3.667c-0.968,0.192-1.498,0.903-1.683,1.72c-1.067-0.876-2.77-1.062-3.709,0.108 c-3.169,3.949-3.298,9.16-3.427,14.154c-1.317-0.028-2.481,1.527-1.239,2.623c0.394,0.348,0.766,0.722,1.156,1.075 c-0.156,7.022,0.273,14.065,0.32,21.087c0.018,2.531,2.382,4.169,4.766,3.63c2.103-0.475,4.168-0.695,6.203-0.976 c0.556,1.05,1.654,1.812,3.145,1.468c32.553-7.505,65.555-4.719,98.619-4.626c1.053,0.426,2.235,0.277,2.783-0.761 c1.414-1.128,1.671-3.268,0.767-4.799c0.626-5.041,1.133-10.104,1.664-15.149c0.299-2.843,0.954-7.136-0.318-10.165 C154.361,152.837,154.61,150.213,152.942,148.618z M143.226,152.479c0.362,0.843,0.992,1.584,1.837,1.906 c0.159,0.061,0.297,0.111,0.45,0.169c0.006,0.163-0.011,0.318,0.015,0.486c0.652,4.288,0.589,8.589,0.444,12.889 c-4.084-4.27-8.99-8.017-13.324-11.998c-1.791-1.644-3.595-3.273-5.434-4.859C132.45,151.179,138.842,151.36,143.226,152.479z M54.303,182.852c-0.4-0.447-0.941-0.771-1.599-0.786c-3.417-0.078-6.699-0.542-10.013-0.49c-0.06-3.285-0.132-6.57-0.188-9.856 c1.352,1.298,2.698,2.604,4.074,3.877c2.452,2.269,5.412,5.248,8.629,7.095C54.906,182.751,54.603,182.789,54.303,182.852z M60.287,181.778c-3.247-3.868-8.449-6.508-12.271-9.883c-1.877-1.658-3.717-3.352-5.571-5.029 c-0.002-0.479-0.017-0.957-0.017-1.438c0.001-3.629,0.763-7.433,0.985-11.142c3.925,4.421,7.982,8.717,12.33,12.737 c4.037,3.732,10.293,10.354,16.141,10.448c1.247,0.021,1.714-1.464,0.96-2.318c-1.727-1.957-4.226-3.04-6.402-4.448 c-3.403-2.202-6.51-4.85-9.563-7.503c-4.801-4.173-9.259-8.749-13.561-13.439c-0.008-0.062-0.007-0.125-0.016-0.187 c0.338,0.181,0.716,0.303,1.179,0.257c2.002-0.2,3.984-0.31,5.977-0.47c0.035,0.041,0.052,0.088,0.096,0.126 c11.416,9.716,23.917,21.888,37.479,29.102C78.735,179.19,69.472,180.148,60.287,181.778z M94.195,178.23 c-0.098-0.225-0.244-0.443-0.495-0.642c-6.215-4.903-13.264-8.783-19.763-13.32c-6.919-4.83-13.553-10.062-20.278-15.157 c4.422-0.31,8.828-0.497,13.232-0.628c6.561,5.938,13.316,11.646,20.164,17.251c4.739,3.879,9.656,8.704,14.97,12.252 C99.414,178.058,96.802,178.109,94.195,178.23z M109.17,177.814c-0.075-0.129-0.131-0.26-0.24-0.384 c-4.705-5.265-11.623-9.104-17.251-13.348c-6.743-5.084-13.365-10.328-19.877-15.705c3.661-0.055,7.327-0.036,10.999,0.021 c7.713,5.563,15.318,11.273,22.689,17.283c4.682,3.817,9.001,8.068,13.48,12.114C115.704,177.798,112.437,177.769,109.17,177.814z M126.173,177.784c-9.938-11.459-23.854-20.857-36.997-29.196c2.454,0.083,4.901,0.137,7.371,0.275 c2.376,0.133,4.751,0.338,7.125,0.521c5.492,4.995,11.226,9.725,16.896,14.524c5.081,4.301,9.608,9.255,14.302,13.953 C131.971,177.834,129.074,177.802,126.173,177.784z M142.418,177.928c-4.217-5.983-11.213-10.848-16.55-15.178 c-5.398-4.379-10.935-8.569-16.347-12.914c3.554,0.315,7.105,0.651,10.654,0.987c0.595,0.056,1.312,0.096,2.114,0.128 c3.203,2.816,6.351,5.688,9.37,8.727c4.239,4.265,8.192,9.305,13.223,12.647c0.32,0.214,0.633,0.284,0.935,0.299 c-0.051,1.78-0.081,3.558-0.038,5.334C144.659,177.948,143.536,177.939,142.418,177.928z"/></symbol><symbol id="mail" viewBox="0 0 187.383 187.383"><title>mail</title><path d="M185.439,57.992c-0.774-8.584,1.847-21.749-0.915-29.566c-0.238-0.673-0.819-1.223-1.514-1.316 c-0.004-0.006-0.005-0.013-0.009-0.019c-4.027-5.607-15.182-3.842-20.966-3.96c-18.658-0.381-37.328-0.28-55.989-0.28 c-33.891,0.002-68.694-1.656-102.487,1.42c-1.313,0.12-1.902,1.296-1.6,2.271c-0.946,0.565-1.572,1.644-1.233,3.143 c4.997,22.128,5.212,45.077,4.736,67.658c-0.23,10.868-1.057,21.718-2.172,32.528c-0.885,8.579-4.695,18.537-2.739,27.061 c0.464,2.023,3.465,3.104,4.998,1.57c12.18,8.393,38.403,5.012,51.832,5.479c16.529,0.575,32.902,1.101,49.439,0.979 c17.874-0.133,35.762-0.398,53.613-1.353c5.741-0.307,19.281,0.98,22.239-5.886c0.514-1.189,0.283-2.519-0.359-3.503 c1.52-4.409,0.918-9.561,0.849-14.196c-0.238-15.952,3.609-31.554,4.147-47.52C187.698,80.964,186.476,69.478,185.439,57.992z M36.423,31.137c19.548,0.955,39.132,0.828,58.698,0.896c18.92,0.066,37.842,0.01,56.761,0.193 c3.59,0.035,9.599-0.424,15.188-0.602c-7.161,6.984-13.86,17.846-17.642,22.165c-12.88,14.713-40.091,50.246-61.972,39.522 C69.563,84.544,56.149,63.06,42.737,48.919c-5.342-5.632-13.147-14.26-21.671-18.277C26.326,30.906,31.589,30.9,36.423,31.137z M22.178,40.666c8.307,6.547,15.188,15.044,22.118,22.965c7.578,8.664,15.782,19.925,25.355,28.519 c-2.619,1.894-4.99,4.302-7.275,6.334c-8.156,7.258-15.834,15.076-23.644,22.699c-8.243,8.044-17.722,14.282-26.599,21.367 c3.061-14.862,1.958-33.655,2.33-45.208C15.131,76.61,14.75,53.88,8.277,33.763C11.657,36.66,18.782,37.99,22.178,40.666z M147.146,154.956c-15.618,0.577-31.256,0.72-46.884,0.818c-14.334,0.093-28.553-0.502-42.881-1.01 c-10.314-0.365-20.628-0.685-30.94-1.108c-4.425-0.183-9.124-0.924-13.641-0.784c7.848-3.747,18.076-13.317,22.007-16.369 c8.408-6.527,15.79-14.716,23.454-22.077c5.636-5.412,13.359-10.435,18.894-16.366c2.88,1.928,5.88,3.55,9.022,4.735 c10.816,4.079,21.13,0.715,30.408-5.274c10.231,9.97,19.917,20.312,29.112,31.295c6.329,7.562,13.283,19.632,21.663,26.437 C159.979,155.471,151.277,154.803,147.146,154.956z M174.915,123.819c-0.814,5.608-0.941,10.605-0.812,16.201 c0.052,2.246,0.064,4.492,0.04,6.737c-0.002,0.803,0.002,1.43,0.011,1.982c-5.448-9.511-15.941-18.476-22.626-25.755 c-9.396-10.232-19.456-20.033-30.425-28.611c6.467-4.884,12.34-10.739,17.396-15.77c7.745-7.705,15.206-15.668,22.341-23.938 c3.392-3.931,10.645-15.718,15.921-20.449c-3.476,11.759,0.822,34.112,1.267,40.825C179.118,91.52,177.289,107.492,174.915,123.819 z"/></symbol></svg>